solid
 facet normal  0.000000e+00 -1.000000e+00  0.000000e+00
   outer loop
     vertex -6.150000e+00 -6.350000e+00  3.000000e+00
     vertex -6.150000e+00 -6.350000e+00  0.000000e+00
     vertex  6.150000e+00 -6.350000e+00  0.000000e+00
   endloop
 endfacet
 facet normal -0.000000e+00 -1.000000e+00 -0.000000e+00
   outer loop
     vertex  6.150000e+00 -6.350000e+00  3.000000e+00
     vertex -6.150000e+00 -6.350000e+00  3.000000e+00
     vertex  6.150000e+00 -6.350000e+00  0.000000e+00
   endloop
 endfacet
 facet normal  8.819213e-01 -4.713967e-01  0.000000e+00
   outer loop
     vertex  1.164926e+01 -3.175000e+00  3.000000e+00
     vertex  1.164926e+01 -3.175000e+00  0.000000e+00
     vertex  1.184514e+01 -2.808533e+00  0.000000e+00
   endloop
 endfacet
 facet normal  6.835923e-01  7.298641e-01  0.000000e+00
   outer loop
     vertex  1.064013e+01  4.490128e+00  3.000000e+00
     vertex  1.064013e+01  4.490128e+00  0.000000e+00
     vertex  1.033685e+01  4.774183e+00  0.000000e+00
   endloop
 endfacet
 facet normal  9.108638e-01 -4.127070e-01  0.000000e+00
   outer loop
     vertex  1.201664e+01 -2.430040e+00  3.000000e+00
     vertex  1.184514e+01 -2.808533e+00  3.000000e+00
     vertex  1.201664e+01 -2.430040e+00  0.000000e+00
   endloop
 endfacet
 facet normal  6.835923e-01  7.298641e-01  0.000000e+00
   outer loop
     vertex  1.033685e+01  4.774183e+00  3.000000e+00
     vertex  1.064013e+01  4.490128e+00  3.000000e+00
     vertex  1.033685e+01  4.774183e+00  0.000000e+00
   endloop
 endfacet
 facet normal  9.108638e-01 -4.127070e-01  0.000000e+00
   outer loop
     vertex  1.184514e+01 -2.808533e+00  3.000000e+00
     vertex  1.184514e+01 -2.808533e+00  0.000000e+00
     vertex  1.201664e+01 -2.430040e+00  0.000000e+00
   endloop
 endfacet
 facet normal  3.271908e-02 -9.994646e-01  0.000000e+00
   outer loop
     vertex  6.565310e+00 -6.336404e+00  3.000000e+00
     vertex  6.150000e+00 -6.350000e+00  3.000000e+00
     vertex  6.150000e+00 -6.350000e+00  0.000000e+00
   endloop
 endfacet
 facet normal  6.343933e-01  7.730105e-01  0.000000e+00
   outer loop
     vertex  1.033685e+01  4.774183e+00  3.000000e+00
     vertex  1.033685e+01  4.774183e+00  0.000000e+00
     vertex  1.001564e+01  5.037794e+00  0.000000e+00
   endloop
 endfacet
 facet normal  6.343933e-01  7.730105e-01  0.000000e+00
   outer loop
     vertex  1.001564e+01  5.037794e+00  3.000000e+00
     vertex  1.033685e+01  4.774183e+00  3.000000e+00
     vertex  1.001564e+01  5.037794e+00  0.000000e+00
   endloop
 endfacet
 facet normal  9.359059e-01 -3.522500e-01  0.000000e+00
   outer loop
     vertex  1.216301e+01 -2.041141e+00  3.000000e+00
     vertex  1.201664e+01 -2.430040e+00  3.000000e+00
     vertex  1.216301e+01 -2.041141e+00  0.000000e+00
   endloop
 endfacet
 facet normal  9.359059e-01 -3.522500e-01  0.000000e+00
   outer loop
     vertex  1.201664e+01 -2.430040e+00  3.000000e+00
     vertex  1.201664e+01 -2.430040e+00  0.000000e+00
     vertex  1.216301e+01 -2.041141e+00  0.000000e+00
   endloop
 endfacet
 facet normal  3.271908e-02 -9.994646e-01  0.000000e+00
   outer loop
     vertex  6.565310e+00 -6.336404e+00  3.000000e+00
     vertex  6.150000e+00 -6.350000e+00  0.000000e+00
     vertex  6.565310e+00 -6.336404e+00  0.000000e+00
   endloop
 endfacet
 facet normal  5.824777e-01  8.128467e-01  0.000000e+00
   outer loop
     vertex  1.001564e+01  5.037794e+00  3.000000e+00
     vertex  1.001564e+01  5.037794e+00  0.000000e+00
     vertex  9.677871e+00  5.279832e+00  0.000000e+00
   endloop
 endfacet
 facet normal  5.824777e-01  8.128467e-01  0.000000e+00
   outer loop
     vertex  9.677871e+00  5.279832e+00  3.000000e+00
     vertex  1.001564e+01  5.037794e+00  3.000000e+00
     vertex  9.677871e+00  5.279832e+00  0.000000e+00
   endloop
 endfacet
 facet normal  9.569403e-01 -2.902847e-01  0.000000e+00
   outer loop
     vertex  1.228363e+01 -1.643501e+00  3.000000e+00
     vertex  1.216301e+01 -2.041141e+00  3.000000e+00
     vertex  1.228363e+01 -1.643501e+00  0.000000e+00
   endloop
 endfacet
 facet normal  9.738770e-01 -2.270763e-01  0.000000e+00
   outer loop
     vertex  1.237799e+01 -1.238824e+00  3.000000e+00
     vertex  1.228363e+01 -1.643501e+00  3.000000e+00
     vertex  1.228363e+01 -1.643501e+00  0.000000e+00
   endloop
 endfacet
 facet normal  9.569403e-01 -2.902847e-01  0.000000e+00
   outer loop
     vertex  1.216301e+01 -2.041141e+00  3.000000e+00
     vertex  1.216301e+01 -2.041141e+00  0.000000e+00
     vertex  1.228363e+01 -1.643501e+00  0.000000e+00
   endloop
 endfacet
 facet normal  9.801714e-02 -9.951847e-01  0.000000e+00
   outer loop
     vertex  6.565310e+00 -6.336404e+00  3.000000e+00
     vertex  6.565310e+00 -6.336404e+00  0.000000e+00
     vertex  6.978841e+00 -6.295675e+00  0.000000e+00
   endloop
 endfacet
 facet normal  9.801714e-02 -9.951847e-01  0.000000e+00
   outer loop
     vertex  6.978841e+00 -6.295675e+00  3.000000e+00
     vertex  6.565310e+00 -6.336404e+00  3.000000e+00
     vertex  6.978841e+00 -6.295675e+00  0.000000e+00
   endloop
 endfacet
 facet normal  5.280679e-01  8.492022e-01  0.000000e+00
   outer loop
     vertex  9.677871e+00  5.279832e+00  3.000000e+00
     vertex  9.677871e+00  5.279832e+00  0.000000e+00
     vertex  9.325000e+00  5.499261e+00  0.000000e+00
   endloop
 endfacet
 facet normal  5.280679e-01  8.492022e-01  0.000000e+00
   outer loop
     vertex  9.325000e+00  5.499261e+00  3.000000e+00
     vertex  9.677871e+00  5.279832e+00  3.000000e+00
     vertex  9.325000e+00  5.499261e+00  0.000000e+00
   endloop
 endfacet
 facet normal  9.866433e-01 -1.628955e-01  0.000000e+00
   outer loop
     vertex  1.244567e+01 -8.288413e-01  3.000000e+00
     vertex  1.237799e+01 -1.238824e+00  3.000000e+00
     vertex  1.237799e+01 -1.238824e+00  0.000000e+00
   endloop
 endfacet
 facet normal  9.738770e-01 -2.270763e-01  0.000000e+00
   outer loop
     vertex  1.237799e+01 -1.238824e+00  3.000000e+00
     vertex  1.228363e+01 -1.643501e+00  0.000000e+00
     vertex  1.237799e+01 -1.238824e+00  0.000000e+00
   endloop
 endfacet
 facet normal  1.628955e-01 -9.866433e-01  0.000000e+00
   outer loop
     vertex  6.978841e+00 -6.295675e+00  3.000000e+00
     vertex  6.978841e+00 -6.295675e+00  0.000000e+00
     vertex  7.388824e+00 -6.227987e+00  0.000000e+00
   endloop
 endfacet
 facet normal  4.713967e-01  8.819213e-01  0.000000e+00
   outer loop
     vertex  9.325000e+00  5.499261e+00  3.000000e+00
     vertex  9.325000e+00  5.499261e+00  0.000000e+00
     vertex  8.958533e+00  5.695142e+00  0.000000e+00
   endloop
 endfacet
 facet normal  1.628955e-01 -9.866433e-01  0.000000e+00
   outer loop
     vertex  7.388824e+00 -6.227987e+00  3.000000e+00
     vertex  6.978841e+00 -6.295675e+00  3.000000e+00
     vertex  7.388824e+00 -6.227987e+00  0.000000e+00
   endloop
 endfacet
 facet normal  4.713967e-01  8.819213e-01  0.000000e+00
   outer loop
     vertex  8.958533e+00  5.695142e+00  3.000000e+00
     vertex  9.325000e+00  5.499261e+00  3.000000e+00
     vertex  8.958533e+00  5.695142e+00  0.000000e+00
   endloop
 endfacet
 facet normal  9.866433e-01 -1.628955e-01  0.000000e+00
   outer loop
     vertex  1.244567e+01 -8.288413e-01  3.000000e+00
     vertex  1.237799e+01 -1.238824e+00  0.000000e+00
     vertex  1.244567e+01 -8.288413e-01  0.000000e+00
   endloop
 endfacet
 facet normal  4.127070e-01  9.108638e-01  0.000000e+00
   outer loop
     vertex  8.958533e+00  5.695142e+00  3.000000e+00
     vertex  8.958533e+00  5.695142e+00  0.000000e+00
     vertex  8.580040e+00  5.866635e+00  0.000000e+00
   endloop
 endfacet
 facet normal  2.270763e-01 -9.738770e-01  0.000000e+00
   outer loop
     vertex  7.388824e+00 -6.227987e+00  3.000000e+00
     vertex  7.388824e+00 -6.227987e+00  0.000000e+00
     vertex  7.793501e+00 -6.133629e+00  0.000000e+00
   endloop
 endfacet
 facet normal  2.270763e-01 -9.738770e-01  0.000000e+00
   outer loop
     vertex  7.793501e+00 -6.133629e+00  3.000000e+00
     vertex  7.388824e+00 -6.227987e+00  3.000000e+00
     vertex  7.793501e+00 -6.133629e+00  0.000000e+00
   endloop
 endfacet
 facet normal  4.127070e-01  9.108638e-01  0.000000e+00
   outer loop
     vertex  8.580040e+00  5.866635e+00  3.000000e+00
     vertex  8.958533e+00  5.695142e+00  3.000000e+00
     vertex  8.580040e+00  5.866635e+00  0.000000e+00
   endloop
 endfacet
 facet normal  9.951847e-01 -9.801714e-02  0.000000e+00
   outer loop
     vertex  1.248640e+01 -4.153099e-01  3.000000e+00
     vertex  1.244567e+01 -8.288413e-01  3.000000e+00
     vertex  1.248640e+01 -4.153099e-01  0.000000e+00
   endloop
 endfacet
 facet normal  9.994646e-01 -3.271908e-02  0.000000e+00
   outer loop
     vertex  1.250000e+01  2.797515e-15  3.000000e+00
     vertex  1.248640e+01 -4.153099e-01  3.000000e+00
     vertex  1.248640e+01 -4.153099e-01  0.000000e+00
   endloop
 endfacet
 facet normal  9.951847e-01 -9.801714e-02  0.000000e+00
   outer loop
     vertex  1.244567e+01 -8.288413e-01  3.000000e+00
     vertex  1.244567e+01 -8.288413e-01  0.000000e+00
     vertex  1.248640e+01 -4.153099e-01  0.000000e+00
   endloop
 endfacet
 facet normal  3.522500e-01  9.359059e-01  0.000000e+00
   outer loop
     vertex  8.580040e+00  5.866635e+00  3.000000e+00
     vertex  8.580040e+00  5.866635e+00  0.000000e+00
     vertex  8.191141e+00  6.013006e+00  0.000000e+00
   endloop
 endfacet
 facet normal  2.902847e-01 -9.569403e-01  0.000000e+00
   outer loop
     vertex  7.793501e+00 -6.133629e+00  3.000000e+00
     vertex  7.793501e+00 -6.133629e+00  0.000000e+00
     vertex  8.191141e+00 -6.013006e+00  0.000000e+00
   endloop
 endfacet
 facet normal  3.522500e-01  9.359059e-01  0.000000e+00
   outer loop
     vertex  8.191141e+00  6.013006e+00  3.000000e+00
     vertex  8.580040e+00  5.866635e+00  3.000000e+00
     vertex  8.191141e+00  6.013006e+00  0.000000e+00
   endloop
 endfacet
 facet normal  2.902847e-01 -9.569403e-01  0.000000e+00
   outer loop
     vertex  8.191141e+00 -6.013006e+00  3.000000e+00
     vertex  7.793501e+00 -6.133629e+00  3.000000e+00
     vertex  8.191141e+00 -6.013006e+00  0.000000e+00
   endloop
 endfacet
 facet normal  9.994646e-01 -3.271908e-02  0.000000e+00
   outer loop
     vertex  1.250000e+01  2.797515e-15  3.000000e+00
     vertex  1.248640e+01 -4.153099e-01  0.000000e+00
     vertex  1.250000e+01  2.797515e-15  0.000000e+00
   endloop
 endfacet
 facet normal  2.902847e-01  9.569403e-01  0.000000e+00
   outer loop
     vertex  8.191141e+00  6.013006e+00  3.000000e+00
     vertex  8.191141e+00  6.013006e+00  0.000000e+00
     vertex  7.793501e+00  6.133629e+00  0.000000e+00
   endloop
 endfacet
 facet normal  2.902847e-01  9.569403e-01  0.000000e+00
   outer loop
     vertex  7.793501e+00  6.133629e+00  3.000000e+00
     vertex  8.191141e+00  6.013006e+00  3.000000e+00
     vertex  7.793501e+00  6.133629e+00  0.000000e+00
   endloop
 endfacet
 facet normal  3.522500e-01 -9.359059e-01  0.000000e+00
   outer loop
     vertex  8.191141e+00 -6.013006e+00  3.000000e+00
     vertex  8.191141e+00 -6.013006e+00  0.000000e+00
     vertex  8.580040e+00 -5.866635e+00  0.000000e+00
   endloop
 endfacet
 facet normal  9.994646e-01  3.271908e-02  0.000000e+00
   outer loop
     vertex  1.248640e+01  4.153099e-01  3.000000e+00
     vertex  1.250000e+01  2.797515e-15  3.000000e+00
     vertex  1.248640e+01  4.153099e-01  0.000000e+00
   endloop
 endfacet
 facet normal  3.522500e-01 -9.359059e-01  0.000000e+00
   outer loop
     vertex  8.580040e+00 -5.866635e+00  3.000000e+00
     vertex  8.191141e+00 -6.013006e+00  3.000000e+00
     vertex  8.580040e+00 -5.866635e+00  0.000000e+00
   endloop
 endfacet
 facet normal  9.994646e-01  3.271908e-02  0.000000e+00
   outer loop
     vertex  1.250000e+01  2.797515e-15  3.000000e+00
     vertex  1.250000e+01  2.797515e-15  0.000000e+00
     vertex  1.248640e+01  4.153099e-01  0.000000e+00
   endloop
 endfacet
 facet normal  2.270763e-01  9.738770e-01  0.000000e+00
   outer loop
     vertex  7.793501e+00  6.133629e+00  3.000000e+00
     vertex  7.793501e+00  6.133629e+00  0.000000e+00
     vertex  7.388824e+00  6.227987e+00  0.000000e+00
   endloop
 endfacet
 facet normal  2.270763e-01  9.738770e-01  0.000000e+00
   outer loop
     vertex  7.388824e+00  6.227987e+00  3.000000e+00
     vertex  7.793501e+00  6.133629e+00  3.000000e+00
     vertex  7.388824e+00  6.227987e+00  0.000000e+00
   endloop
 endfacet
 facet normal  9.951847e-01  9.801714e-02  0.000000e+00
   outer loop
     vertex  1.248640e+01  4.153099e-01  3.000000e+00
     vertex  1.248640e+01  4.153099e-01  0.000000e+00
     vertex  1.244567e+01  8.288413e-01  0.000000e+00
   endloop
 endfacet
 facet normal  4.127070e-01 -9.108638e-01  0.000000e+00
   outer loop
     vertex  8.580040e+00 -5.866635e+00  3.000000e+00
     vertex  8.580040e+00 -5.866635e+00  0.000000e+00
     vertex  8.958533e+00 -5.695142e+00  0.000000e+00
   endloop
 endfacet
 facet normal  9.951847e-01  9.801714e-02  0.000000e+00
   outer loop
     vertex  1.244567e+01  8.288413e-01  3.000000e+00
     vertex  1.248640e+01  4.153099e-01  3.000000e+00
     vertex  1.244567e+01  8.288413e-01  0.000000e+00
   endloop
 endfacet
 facet normal  4.127070e-01 -9.108638e-01  0.000000e+00
   outer loop
     vertex  8.958533e+00 -5.695142e+00  3.000000e+00
     vertex  8.580040e+00 -5.866635e+00  3.000000e+00
     vertex  8.958533e+00 -5.695142e+00  0.000000e+00
   endloop
 endfacet
 facet normal  1.628955e-01  9.866433e-01  0.000000e+00
   outer loop
     vertex  7.388824e+00  6.227987e+00  3.000000e+00
     vertex  7.388824e+00  6.227987e+00  0.000000e+00
     vertex  6.978841e+00  6.295675e+00  0.000000e+00
   endloop
 endfacet
 facet normal  1.628955e-01  9.866433e-01  0.000000e+00
   outer loop
     vertex  6.978841e+00  6.295675e+00  3.000000e+00
     vertex  7.388824e+00  6.227987e+00  3.000000e+00
     vertex  6.978841e+00  6.295675e+00  0.000000e+00
   endloop
 endfacet
 facet normal  9.866433e-01  1.628955e-01  0.000000e+00
   outer loop
     vertex  1.244567e+01  8.288413e-01  3.000000e+00
     vertex  1.244567e+01  8.288413e-01  0.000000e+00
     vertex  1.237799e+01  1.238824e+00  0.000000e+00
   endloop
 endfacet
 facet normal  4.713967e-01 -8.819213e-01  0.000000e+00
   outer loop
     vertex  8.958533e+00 -5.695142e+00  3.000000e+00
     vertex  8.958533e+00 -5.695142e+00  0.000000e+00
     vertex  9.325000e+00 -5.499261e+00  0.000000e+00
   endloop
 endfacet
 facet normal  9.866433e-01  1.628955e-01  0.000000e+00
   outer loop
     vertex  1.237799e+01  1.238824e+00  3.000000e+00
     vertex  1.244567e+01  8.288413e-01  3.000000e+00
     vertex  1.237799e+01  1.238824e+00  0.000000e+00
   endloop
 endfacet
 facet normal  4.713967e-01 -8.819213e-01  0.000000e+00
   outer loop
     vertex  9.325000e+00 -5.499261e+00  3.000000e+00
     vertex  8.958533e+00 -5.695142e+00  3.000000e+00
     vertex  9.325000e+00 -5.499261e+00  0.000000e+00
   endloop
 endfacet
 facet normal  9.801714e-02  9.951847e-01  0.000000e+00
   outer loop
     vertex  6.978841e+00  6.295675e+00  3.000000e+00
     vertex  6.978841e+00  6.295675e+00  0.000000e+00
     vertex  6.565310e+00  6.336404e+00  0.000000e+00
   endloop
 endfacet
 facet normal  9.801714e-02  9.951847e-01  0.000000e+00
   outer loop
     vertex  6.565310e+00  6.336404e+00  3.000000e+00
     vertex  6.978841e+00  6.295675e+00  3.000000e+00
     vertex  6.565310e+00  6.336404e+00  0.000000e+00
   endloop
 endfacet
 facet normal  3.271908e-02  9.994646e-01  0.000000e+00
   outer loop
     vertex  6.565310e+00  6.336404e+00  3.000000e+00
     vertex  6.565310e+00  6.336404e+00  0.000000e+00
     vertex  6.150000e+00  6.350000e+00  0.000000e+00
   endloop
 endfacet
 facet normal  3.271908e-02  9.994646e-01  0.000000e+00
   outer loop
     vertex  6.150000e+00  6.350000e+00  3.000000e+00
     vertex  6.565310e+00  6.336404e+00  3.000000e+00
     vertex  6.150000e+00  6.350000e+00  0.000000e+00
   endloop
 endfacet
 facet normal  9.738770e-01  2.270763e-01  0.000000e+00
   outer loop
     vertex  1.237799e+01  1.238824e+00  3.000000e+00
     vertex  1.237799e+01  1.238824e+00  0.000000e+00
     vertex  1.228363e+01  1.643501e+00  0.000000e+00
   endloop
 endfacet
 facet normal  5.280679e-01 -8.492022e-01  0.000000e+00
   outer loop
     vertex  9.325000e+00 -5.499261e+00  3.000000e+00
     vertex  9.325000e+00 -5.499261e+00  0.000000e+00
     vertex  9.677871e+00 -5.279832e+00  0.000000e+00
   endloop
 endfacet
 facet normal  9.738770e-01  2.270763e-01  0.000000e+00
   outer loop
     vertex  1.228363e+01  1.643501e+00  3.000000e+00
     vertex  1.237799e+01  1.238824e+00  3.000000e+00
     vertex  1.228363e+01  1.643501e+00  0.000000e+00
   endloop
 endfacet
 facet normal  5.280679e-01 -8.492022e-01  0.000000e+00
   outer loop
     vertex  9.677871e+00 -5.279832e+00  3.000000e+00
     vertex  9.325000e+00 -5.499261e+00  3.000000e+00
     vertex  9.677871e+00 -5.279832e+00  0.000000e+00
   endloop
 endfacet
 facet normal  9.569403e-01  2.902847e-01  0.000000e+00
   outer loop
     vertex  1.216301e+01  2.041141e+00  3.000000e+00
     vertex  1.228363e+01  1.643501e+00  3.000000e+00
     vertex  1.228363e+01  1.643501e+00  0.000000e+00
   endloop
 endfacet
 facet normal  9.569403e-01  2.902847e-01  0.000000e+00
   outer loop
     vertex  1.216301e+01  2.041141e+00  3.000000e+00
     vertex  1.228363e+01  1.643501e+00  0.000000e+00
     vertex  1.216301e+01  2.041141e+00  0.000000e+00
   endloop
 endfacet
 facet normal  5.824777e-01 -8.128467e-01  0.000000e+00
   outer loop
     vertex  9.677871e+00 -5.279832e+00  3.000000e+00
     vertex  9.677871e+00 -5.279832e+00  0.000000e+00
     vertex  1.001564e+01 -5.037794e+00  0.000000e+00
   endloop
 endfacet
 facet normal  9.359059e-01  3.522500e-01  0.000000e+00
   outer loop
     vertex  1.201664e+01  2.430040e+00  3.000000e+00
     vertex  1.216301e+01  2.041141e+00  3.000000e+00
     vertex  1.216301e+01  2.041141e+00  0.000000e+00
   endloop
 endfacet
 facet normal  5.824777e-01 -8.128467e-01  0.000000e+00
   outer loop
     vertex  1.001564e+01 -5.037794e+00  3.000000e+00
     vertex  9.677871e+00 -5.279832e+00  3.000000e+00
     vertex  1.001564e+01 -5.037794e+00  0.000000e+00
   endloop
 endfacet
 facet normal  6.343933e-01 -7.730105e-01  0.000000e+00
   outer loop
     vertex  1.033685e+01 -4.774183e+00  3.000000e+00
     vertex  1.001564e+01 -5.037794e+00  3.000000e+00
     vertex  1.001564e+01 -5.037794e+00  0.000000e+00
   endloop
 endfacet
 facet normal  9.359059e-01  3.522500e-01  0.000000e+00
   outer loop
     vertex  1.201664e+01  2.430040e+00  3.000000e+00
     vertex  1.216301e+01  2.041141e+00  0.000000e+00
     vertex  1.201664e+01  2.430040e+00  0.000000e+00
   endloop
 endfacet
 facet normal  6.343933e-01 -7.730105e-01  0.000000e+00
   outer loop
     vertex  1.033685e+01 -4.774183e+00  3.000000e+00
     vertex  1.001564e+01 -5.037794e+00  0.000000e+00
     vertex  1.033685e+01 -4.774183e+00  0.000000e+00
   endloop
 endfacet
 facet normal  6.835923e-01 -7.298641e-01  0.000000e+00
   outer loop
     vertex  1.064013e+01 -4.490128e+00  3.000000e+00
     vertex  1.033685e+01 -4.774183e+00  3.000000e+00
     vertex  1.033685e+01 -4.774183e+00  0.000000e+00
   endloop
 endfacet
 facet normal  9.108638e-01  4.127070e-01  0.000000e+00
   outer loop
     vertex  1.201664e+01  2.430040e+00  3.000000e+00
     vertex  1.201664e+01  2.430040e+00  0.000000e+00
     vertex  1.184514e+01  2.808533e+00  0.000000e+00
   endloop
 endfacet
 facet normal  9.108638e-01  4.127070e-01  0.000000e+00
   outer loop
     vertex  1.184514e+01  2.808533e+00  3.000000e+00
     vertex  1.201664e+01  2.430040e+00  3.000000e+00
     vertex  1.184514e+01  2.808533e+00  0.000000e+00
   endloop
 endfacet
 facet normal  6.835923e-01 -7.298641e-01  0.000000e+00
   outer loop
     vertex  1.064013e+01 -4.490128e+00  3.000000e+00
     vertex  1.033685e+01 -4.774183e+00  0.000000e+00
     vertex  1.064013e+01 -4.490128e+00  0.000000e+00
   endloop
 endfacet
 facet normal  8.819213e-01  4.713967e-01  0.000000e+00
   outer loop
     vertex  1.184514e+01  2.808533e+00  3.000000e+00
     vertex  1.184514e+01  2.808533e+00  0.000000e+00
     vertex  1.164926e+01  3.175000e+00  0.000000e+00
   endloop
 endfacet
 facet normal  7.298641e-01 -6.835923e-01  0.000000e+00
   outer loop
     vertex  1.064013e+01 -4.490128e+00  3.000000e+00
     vertex  1.064013e+01 -4.490128e+00  0.000000e+00
     vertex  1.092418e+01 -4.186846e+00  0.000000e+00
   endloop
 endfacet
 facet normal  8.819213e-01  4.713967e-01  0.000000e+00
   outer loop
     vertex  1.164926e+01  3.175000e+00  3.000000e+00
     vertex  1.184514e+01  2.808533e+00  3.000000e+00
     vertex  1.164926e+01  3.175000e+00  0.000000e+00
   endloop
 endfacet
 facet normal  7.298641e-01 -6.835923e-01  0.000000e+00
   outer loop
     vertex  1.092418e+01 -4.186846e+00  3.000000e+00
     vertex  1.064013e+01 -4.490128e+00  3.000000e+00
     vertex  1.092418e+01 -4.186846e+00  0.000000e+00
   endloop
 endfacet
 facet normal  8.492022e-01  5.280679e-01  0.000000e+00
   outer loop
     vertex  1.164926e+01  3.175000e+00  3.000000e+00
     vertex  1.164926e+01  3.175000e+00  0.000000e+00
     vertex  1.142983e+01  3.527871e+00  0.000000e+00
   endloop
 endfacet
 facet normal  7.730105e-01 -6.343933e-01  0.000000e+00
   outer loop
     vertex  1.092418e+01 -4.186846e+00  3.000000e+00
     vertex  1.092418e+01 -4.186846e+00  0.000000e+00
     vertex  1.118779e+01 -3.865635e+00  0.000000e+00
   endloop
 endfacet
 facet normal  8.492022e-01  5.280679e-01  0.000000e+00
   outer loop
     vertex  1.142983e+01  3.527871e+00  3.000000e+00
     vertex  1.164926e+01  3.175000e+00  3.000000e+00
     vertex  1.142983e+01  3.527871e+00  0.000000e+00
   endloop
 endfacet
 facet normal  7.730105e-01 -6.343933e-01  0.000000e+00
   outer loop
     vertex  1.118779e+01 -3.865635e+00  3.000000e+00
     vertex  1.092418e+01 -4.186846e+00  3.000000e+00
     vertex  1.118779e+01 -3.865635e+00  0.000000e+00
   endloop
 endfacet
 facet normal  8.128467e-01  5.824777e-01  0.000000e+00
   outer loop
     vertex  1.142983e+01  3.527871e+00  3.000000e+00
     vertex  1.142983e+01  3.527871e+00  0.000000e+00
     vertex  1.118779e+01  3.865635e+00  0.000000e+00
   endloop
 endfacet
 facet normal  8.128467e-01 -5.824777e-01  0.000000e+00
   outer loop
     vertex  1.118779e+01 -3.865635e+00  3.000000e+00
     vertex  1.118779e+01 -3.865635e+00  0.000000e+00
     vertex  1.142983e+01 -3.527871e+00  0.000000e+00
   endloop
 endfacet
 facet normal  8.128467e-01  5.824777e-01  0.000000e+00
   outer loop
     vertex  1.118779e+01  3.865635e+00  3.000000e+00
     vertex  1.142983e+01  3.527871e+00  3.000000e+00
     vertex  1.118779e+01  3.865635e+00  0.000000e+00
   endloop
 endfacet
 facet normal  8.128467e-01 -5.824777e-01  0.000000e+00
   outer loop
     vertex  1.142983e+01 -3.527871e+00  3.000000e+00
     vertex  1.118779e+01 -3.865635e+00  3.000000e+00
     vertex  1.142983e+01 -3.527871e+00  0.000000e+00
   endloop
 endfacet
 facet normal  7.730105e-01  6.343933e-01  0.000000e+00
   outer loop
     vertex  1.092418e+01  4.186846e+00  3.000000e+00
     vertex  1.118779e+01  3.865635e+00  3.000000e+00
     vertex  1.118779e+01  3.865635e+00  0.000000e+00
   endloop
 endfacet
 facet normal  7.730105e-01  6.343933e-01  0.000000e+00
   outer loop
     vertex  1.092418e+01  4.186846e+00  3.000000e+00
     vertex  1.118779e+01  3.865635e+00  0.000000e+00
     vertex  1.092418e+01  4.186846e+00  0.000000e+00
   endloop
 endfacet
 facet normal  8.492022e-01 -5.280679e-01  0.000000e+00
   outer loop
     vertex  1.164926e+01 -3.175000e+00  3.000000e+00
     vertex  1.142983e+01 -3.527871e+00  3.000000e+00
     vertex  1.164926e+01 -3.175000e+00  0.000000e+00
   endloop
 endfacet
 facet normal  8.492022e-01 -5.280679e-01  0.000000e+00
   outer loop
     vertex  1.142983e+01 -3.527871e+00  3.000000e+00
     vertex  1.142983e+01 -3.527871e+00  0.000000e+00
     vertex  1.164926e+01 -3.175000e+00  0.000000e+00
   endloop
 endfacet
 facet normal  7.298641e-01  6.835923e-01  0.000000e+00
   outer loop
     vertex  1.092418e+01  4.186846e+00  3.000000e+00
     vertex  1.092418e+01  4.186846e+00  0.000000e+00
     vertex  1.064013e+01  4.490128e+00  0.000000e+00
   endloop
 endfacet
 facet normal  7.298641e-01  6.835923e-01  0.000000e+00
   outer loop
     vertex  1.064013e+01  4.490128e+00  3.000000e+00
     vertex  1.092418e+01  4.186846e+00  3.000000e+00
     vertex  1.064013e+01  4.490128e+00  0.000000e+00
   endloop
 endfacet
 facet normal  8.819213e-01 -4.713967e-01  0.000000e+00
   outer loop
     vertex  1.184514e+01 -2.808533e+00  3.000000e+00
     vertex  1.164926e+01 -3.175000e+00  3.000000e+00
     vertex  1.184514e+01 -2.808533e+00  0.000000e+00
   endloop
 endfacet
 facet normal  0.000000e+00  1.000000e+00  0.000000e+00
   outer loop
     vertex  6.150000e+00  6.350000e+00  3.000000e+00
     vertex  6.150000e+00  6.350000e+00  0.000000e+00
     vertex -6.150000e+00  6.350000e+00  0.000000e+00
   endloop
 endfacet
 facet normal -0.000000e+00  1.000000e+00  0.000000e+00
   outer loop
     vertex -6.150000e+00  6.350000e+00  3.000000e+00
     vertex  6.150000e+00  6.350000e+00  3.000000e+00
     vertex -6.150000e+00  6.350000e+00  0.000000e+00
   endloop
 endfacet
 facet normal -8.819213e-01  4.713967e-01  0.000000e+00
   outer loop
     vertex -1.164926e+01  3.175000e+00  3.000000e+00
     vertex -1.164926e+01  3.175000e+00  0.000000e+00
     vertex -1.184514e+01  2.808533e+00  0.000000e+00
   endloop
 endfacet
 facet normal -6.835923e-01 -7.298641e-01 -0.000000e+00
   outer loop
     vertex -1.064013e+01 -4.490128e+00  3.000000e+00
     vertex -1.064013e+01 -4.490128e+00  0.000000e+00
     vertex -1.033685e+01 -4.774183e+00  0.000000e+00
   endloop
 endfacet
 facet normal -9.108638e-01  4.127070e-01  0.000000e+00
   outer loop
     vertex -1.201664e+01  2.430040e+00  3.000000e+00
     vertex -1.184514e+01  2.808533e+00  3.000000e+00
     vertex -1.201664e+01  2.430040e+00  0.000000e+00
   endloop
 endfacet
 facet normal -6.835923e-01 -7.298641e-01  0.000000e+00
   outer loop
     vertex -1.033685e+01 -4.774183e+00  3.000000e+00
     vertex -1.064013e+01 -4.490128e+00  3.000000e+00
     vertex -1.033685e+01 -4.774183e+00  0.000000e+00
   endloop
 endfacet
 facet normal -9.108638e-01  4.127070e-01  0.000000e+00
   outer loop
     vertex -1.184514e+01  2.808533e+00  3.000000e+00
     vertex -1.184514e+01  2.808533e+00  0.000000e+00
     vertex -1.201664e+01  2.430040e+00  0.000000e+00
   endloop
 endfacet
 facet normal -3.271908e-02  9.994646e-01  0.000000e+00
   outer loop
     vertex -6.565310e+00  6.336404e+00  3.000000e+00
     vertex -6.150000e+00  6.350000e+00  3.000000e+00
     vertex -6.150000e+00  6.350000e+00  0.000000e+00
   endloop
 endfacet
 facet normal -6.343933e-01 -7.730105e-01 -0.000000e+00
   outer loop
     vertex -1.033685e+01 -4.774183e+00  3.000000e+00
     vertex -1.033685e+01 -4.774183e+00  0.000000e+00
     vertex -1.001564e+01 -5.037794e+00  0.000000e+00
   endloop
 endfacet
 facet normal -6.343933e-01 -7.730105e-01  0.000000e+00
   outer loop
     vertex -1.001564e+01 -5.037794e+00  3.000000e+00
     vertex -1.033685e+01 -4.774183e+00  3.000000e+00
     vertex -1.001564e+01 -5.037794e+00  0.000000e+00
   endloop
 endfacet
 facet normal -9.359059e-01  3.522500e-01  0.000000e+00
   outer loop
     vertex -1.216301e+01  2.041141e+00  3.000000e+00
     vertex -1.201664e+01  2.430040e+00  3.000000e+00
     vertex -1.216301e+01  2.041141e+00  0.000000e+00
   endloop
 endfacet
 facet normal -9.359059e-01  3.522500e-01  0.000000e+00
   outer loop
     vertex -1.201664e+01  2.430040e+00  3.000000e+00
     vertex -1.201664e+01  2.430040e+00  0.000000e+00
     vertex -1.216301e+01  2.041141e+00  0.000000e+00
   endloop
 endfacet
 facet normal -3.271908e-02  9.994646e-01  0.000000e+00
   outer loop
     vertex -6.565310e+00  6.336404e+00  3.000000e+00
     vertex -6.150000e+00  6.350000e+00  0.000000e+00
     vertex -6.565310e+00  6.336404e+00  0.000000e+00
   endloop
 endfacet
 facet normal -5.824777e-01 -8.128467e-01 -0.000000e+00
   outer loop
     vertex -1.001564e+01 -5.037794e+00  3.000000e+00
     vertex -1.001564e+01 -5.037794e+00  0.000000e+00
     vertex -9.677871e+00 -5.279832e+00  0.000000e+00
   endloop
 endfacet
 facet normal -5.824777e-01 -8.128467e-01  0.000000e+00
   outer loop
     vertex -9.677871e+00 -5.279832e+00  3.000000e+00
     vertex -1.001564e+01 -5.037794e+00  3.000000e+00
     vertex -9.677871e+00 -5.279832e+00  0.000000e+00
   endloop
 endfacet
 facet normal -9.569403e-01  2.902847e-01  0.000000e+00
   outer loop
     vertex -1.228363e+01  1.643501e+00  3.000000e+00
     vertex -1.216301e+01  2.041141e+00  3.000000e+00
     vertex -1.228363e+01  1.643501e+00  0.000000e+00
   endloop
 endfacet
 facet normal -9.738770e-01  2.270763e-01  0.000000e+00
   outer loop
     vertex -1.237799e+01  1.238824e+00  3.000000e+00
     vertex -1.228363e+01  1.643501e+00  3.000000e+00
     vertex -1.228363e+01  1.643501e+00  0.000000e+00
   endloop
 endfacet
 facet normal -9.569403e-01  2.902847e-01  0.000000e+00
   outer loop
     vertex -1.216301e+01  2.041141e+00  3.000000e+00
     vertex -1.216301e+01  2.041141e+00  0.000000e+00
     vertex -1.228363e+01  1.643501e+00  0.000000e+00
   endloop
 endfacet
 facet normal -9.801714e-02  9.951847e-01  0.000000e+00
   outer loop
     vertex -6.565310e+00  6.336404e+00  3.000000e+00
     vertex -6.565310e+00  6.336404e+00  0.000000e+00
     vertex -6.978841e+00  6.295675e+00  0.000000e+00
   endloop
 endfacet
 facet normal -9.801714e-02  9.951847e-01  0.000000e+00
   outer loop
     vertex -6.978841e+00  6.295675e+00  3.000000e+00
     vertex -6.565310e+00  6.336404e+00  3.000000e+00
     vertex -6.978841e+00  6.295675e+00  0.000000e+00
   endloop
 endfacet
 facet normal -5.280679e-01 -8.492022e-01 -0.000000e+00
   outer loop
     vertex -9.677871e+00 -5.279832e+00  3.000000e+00
     vertex -9.677871e+00 -5.279832e+00  0.000000e+00
     vertex -9.325000e+00 -5.499261e+00  0.000000e+00
   endloop
 endfacet
 facet normal -5.280679e-01 -8.492022e-01  0.000000e+00
   outer loop
     vertex -9.325000e+00 -5.499261e+00  3.000000e+00
     vertex -9.677871e+00 -5.279832e+00  3.000000e+00
     vertex -9.325000e+00 -5.499261e+00  0.000000e+00
   endloop
 endfacet
 facet normal -9.866433e-01  1.628955e-01  0.000000e+00
   outer loop
     vertex -1.244567e+01  8.288413e-01  3.000000e+00
     vertex -1.237799e+01  1.238824e+00  3.000000e+00
     vertex -1.237799e+01  1.238824e+00  0.000000e+00
   endloop
 endfacet
 facet normal -9.738770e-01  2.270763e-01  0.000000e+00
   outer loop
     vertex -1.237799e+01  1.238824e+00  3.000000e+00
     vertex -1.228363e+01  1.643501e+00  0.000000e+00
     vertex -1.237799e+01  1.238824e+00  0.000000e+00
   endloop
 endfacet
 facet normal -1.628955e-01  9.866433e-01  0.000000e+00
   outer loop
     vertex -6.978841e+00  6.295675e+00  3.000000e+00
     vertex -6.978841e+00  6.295675e+00  0.000000e+00
     vertex -7.388824e+00  6.227987e+00  0.000000e+00
   endloop
 endfacet
 facet normal -4.713967e-01 -8.819213e-01 -0.000000e+00
   outer loop
     vertex -9.325000e+00 -5.499261e+00  3.000000e+00
     vertex -9.325000e+00 -5.499261e+00  0.000000e+00
     vertex -8.958533e+00 -5.695142e+00  0.000000e+00
   endloop
 endfacet
 facet normal -1.628955e-01  9.866433e-01  0.000000e+00
   outer loop
     vertex -7.388824e+00  6.227987e+00  3.000000e+00
     vertex -6.978841e+00  6.295675e+00  3.000000e+00
     vertex -7.388824e+00  6.227987e+00  0.000000e+00
   endloop
 endfacet
 facet normal -4.713967e-01 -8.819213e-01  0.000000e+00
   outer loop
     vertex -8.958533e+00 -5.695142e+00  3.000000e+00
     vertex -9.325000e+00 -5.499261e+00  3.000000e+00
     vertex -8.958533e+00 -5.695142e+00  0.000000e+00
   endloop
 endfacet
 facet normal -9.866433e-01  1.628955e-01  0.000000e+00
   outer loop
     vertex -1.244567e+01  8.288413e-01  3.000000e+00
     vertex -1.237799e+01  1.238824e+00  0.000000e+00
     vertex -1.244567e+01  8.288413e-01  0.000000e+00
   endloop
 endfacet
 facet normal -4.127070e-01 -9.108638e-01 -0.000000e+00
   outer loop
     vertex -8.958533e+00 -5.695142e+00  3.000000e+00
     vertex -8.958533e+00 -5.695142e+00  0.000000e+00
     vertex -8.580040e+00 -5.866635e+00  0.000000e+00
   endloop
 endfacet
 facet normal -2.270763e-01  9.738770e-01  0.000000e+00
   outer loop
     vertex -7.388824e+00  6.227987e+00  3.000000e+00
     vertex -7.388824e+00  6.227987e+00  0.000000e+00
     vertex -7.793501e+00  6.133629e+00  0.000000e+00
   endloop
 endfacet
 facet normal -2.270763e-01  9.738770e-01  0.000000e+00
   outer loop
     vertex -7.793501e+00  6.133629e+00  3.000000e+00
     vertex -7.388824e+00  6.227987e+00  3.000000e+00
     vertex -7.793501e+00  6.133629e+00  0.000000e+00
   endloop
 endfacet
 facet normal -4.127070e-01 -9.108638e-01  0.000000e+00
   outer loop
     vertex -8.580040e+00 -5.866635e+00  3.000000e+00
     vertex -8.958533e+00 -5.695142e+00  3.000000e+00
     vertex -8.580040e+00 -5.866635e+00  0.000000e+00
   endloop
 endfacet
 facet normal -9.951847e-01  9.801714e-02  0.000000e+00
   outer loop
     vertex -1.248640e+01  4.153099e-01  3.000000e+00
     vertex -1.244567e+01  8.288413e-01  3.000000e+00
     vertex -1.248640e+01  4.153099e-01  0.000000e+00
   endloop
 endfacet
 facet normal -9.994646e-01  3.271908e-02  0.000000e+00
   outer loop
     vertex -1.250000e+01 -2.797515e-15  3.000000e+00
     vertex -1.248640e+01  4.153099e-01  3.000000e+00
     vertex -1.248640e+01  4.153099e-01  0.000000e+00
   endloop
 endfacet
 facet normal -9.951847e-01  9.801714e-02  0.000000e+00
   outer loop
     vertex -1.244567e+01  8.288413e-01  3.000000e+00
     vertex -1.244567e+01  8.288413e-01  0.000000e+00
     vertex -1.248640e+01  4.153099e-01  0.000000e+00
   endloop
 endfacet
 facet normal -3.522500e-01 -9.359059e-01 -0.000000e+00
   outer loop
     vertex -8.580040e+00 -5.866635e+00  3.000000e+00
     vertex -8.580040e+00 -5.866635e+00  0.000000e+00
     vertex -8.191141e+00 -6.013006e+00  0.000000e+00
   endloop
 endfacet
 facet normal -2.902847e-01  9.569403e-01  0.000000e+00
   outer loop
     vertex -7.793501e+00  6.133629e+00  3.000000e+00
     vertex -7.793501e+00  6.133629e+00  0.000000e+00
     vertex -8.191141e+00  6.013006e+00  0.000000e+00
   endloop
 endfacet
 facet normal -3.522500e-01 -9.359059e-01  0.000000e+00
   outer loop
     vertex -8.191141e+00 -6.013006e+00  3.000000e+00
     vertex -8.580040e+00 -5.866635e+00  3.000000e+00
     vertex -8.191141e+00 -6.013006e+00  0.000000e+00
   endloop
 endfacet
 facet normal -2.902847e-01  9.569403e-01  0.000000e+00
   outer loop
     vertex -8.191141e+00  6.013006e+00  3.000000e+00
     vertex -7.793501e+00  6.133629e+00  3.000000e+00
     vertex -8.191141e+00  6.013006e+00  0.000000e+00
   endloop
 endfacet
 facet normal -9.994646e-01  3.271908e-02  0.000000e+00
   outer loop
     vertex -1.250000e+01 -2.797515e-15  3.000000e+00
     vertex -1.248640e+01  4.153099e-01  0.000000e+00
     vertex -1.250000e+01 -2.797515e-15  0.000000e+00
   endloop
 endfacet
 facet normal -2.902847e-01 -9.569403e-01 -0.000000e+00
   outer loop
     vertex -8.191141e+00 -6.013006e+00  3.000000e+00
     vertex -8.191141e+00 -6.013006e+00  0.000000e+00
     vertex -7.793501e+00 -6.133629e+00  0.000000e+00
   endloop
 endfacet
 facet normal -2.902847e-01 -9.569403e-01  0.000000e+00
   outer loop
     vertex -7.793501e+00 -6.133629e+00  3.000000e+00
     vertex -8.191141e+00 -6.013006e+00  3.000000e+00
     vertex -7.793501e+00 -6.133629e+00  0.000000e+00
   endloop
 endfacet
 facet normal -3.522500e-01  9.359059e-01  0.000000e+00
   outer loop
     vertex -8.191141e+00  6.013006e+00  3.000000e+00
     vertex -8.191141e+00  6.013006e+00  0.000000e+00
     vertex -8.580040e+00  5.866635e+00  0.000000e+00
   endloop
 endfacet
 facet normal -9.994646e-01 -3.271908e-02  0.000000e+00
   outer loop
     vertex -1.248640e+01 -4.153099e-01  3.000000e+00
     vertex -1.250000e+01 -2.797515e-15  3.000000e+00
     vertex -1.248640e+01 -4.153099e-01  0.000000e+00
   endloop
 endfacet
 facet normal -3.522500e-01  9.359059e-01  0.000000e+00
   outer loop
     vertex -8.580040e+00  5.866635e+00  3.000000e+00
     vertex -8.191141e+00  6.013006e+00  3.000000e+00
     vertex -8.580040e+00  5.866635e+00  0.000000e+00
   endloop
 endfacet
 facet normal -9.994646e-01 -3.271908e-02 -0.000000e+00
   outer loop
     vertex -1.250000e+01 -2.797515e-15  3.000000e+00
     vertex -1.250000e+01 -2.797515e-15  0.000000e+00
     vertex -1.248640e+01 -4.153099e-01  0.000000e+00
   endloop
 endfacet
 facet normal -2.270763e-01 -9.738770e-01 -0.000000e+00
   outer loop
     vertex -7.793501e+00 -6.133629e+00  3.000000e+00
     vertex -7.793501e+00 -6.133629e+00  0.000000e+00
     vertex -7.388824e+00 -6.227987e+00  0.000000e+00
   endloop
 endfacet
 facet normal -2.270763e-01 -9.738770e-01  0.000000e+00
   outer loop
     vertex -7.388824e+00 -6.227987e+00  3.000000e+00
     vertex -7.793501e+00 -6.133629e+00  3.000000e+00
     vertex -7.388824e+00 -6.227987e+00  0.000000e+00
   endloop
 endfacet
 facet normal -9.951847e-01 -9.801714e-02 -0.000000e+00
   outer loop
     vertex -1.248640e+01 -4.153099e-01  3.000000e+00
     vertex -1.248640e+01 -4.153099e-01  0.000000e+00
     vertex -1.244567e+01 -8.288413e-01  0.000000e+00
   endloop
 endfacet
 facet normal -4.127070e-01  9.108638e-01  0.000000e+00
   outer loop
     vertex -8.580040e+00  5.866635e+00  3.000000e+00
     vertex -8.580040e+00  5.866635e+00  0.000000e+00
     vertex -8.958533e+00  5.695142e+00  0.000000e+00
   endloop
 endfacet
 facet normal -9.951847e-01 -9.801714e-02  0.000000e+00
   outer loop
     vertex -1.244567e+01 -8.288413e-01  3.000000e+00
     vertex -1.248640e+01 -4.153099e-01  3.000000e+00
     vertex -1.244567e+01 -8.288413e-01  0.000000e+00
   endloop
 endfacet
 facet normal -4.127070e-01  9.108638e-01  0.000000e+00
   outer loop
     vertex -8.958533e+00  5.695142e+00  3.000000e+00
     vertex -8.580040e+00  5.866635e+00  3.000000e+00
     vertex -8.958533e+00  5.695142e+00  0.000000e+00
   endloop
 endfacet
 facet normal -1.628955e-01 -9.866433e-01 -0.000000e+00
   outer loop
     vertex -7.388824e+00 -6.227987e+00  3.000000e+00
     vertex -7.388824e+00 -6.227987e+00  0.000000e+00
     vertex -6.978841e+00 -6.295675e+00  0.000000e+00
   endloop
 endfacet
 facet normal -1.628955e-01 -9.866433e-01  0.000000e+00
   outer loop
     vertex -6.978841e+00 -6.295675e+00  3.000000e+00
     vertex -7.388824e+00 -6.227987e+00  3.000000e+00
     vertex -6.978841e+00 -6.295675e+00  0.000000e+00
   endloop
 endfacet
 facet normal -9.866433e-01 -1.628955e-01 -0.000000e+00
   outer loop
     vertex -1.244567e+01 -8.288413e-01  3.000000e+00
     vertex -1.244567e+01 -8.288413e-01  0.000000e+00
     vertex -1.237799e+01 -1.238824e+00  0.000000e+00
   endloop
 endfacet
 facet normal -4.713967e-01  8.819213e-01  0.000000e+00
   outer loop
     vertex -8.958533e+00  5.695142e+00  3.000000e+00
     vertex -8.958533e+00  5.695142e+00  0.000000e+00
     vertex -9.325000e+00  5.499261e+00  0.000000e+00
   endloop
 endfacet
 facet normal -9.866433e-01 -1.628955e-01  0.000000e+00
   outer loop
     vertex -1.237799e+01 -1.238824e+00  3.000000e+00
     vertex -1.244567e+01 -8.288413e-01  3.000000e+00
     vertex -1.237799e+01 -1.238824e+00  0.000000e+00
   endloop
 endfacet
 facet normal -4.713967e-01  8.819213e-01  0.000000e+00
   outer loop
     vertex -9.325000e+00  5.499261e+00  3.000000e+00
     vertex -8.958533e+00  5.695142e+00  3.000000e+00
     vertex -9.325000e+00  5.499261e+00  0.000000e+00
   endloop
 endfacet
 facet normal -9.801714e-02 -9.951847e-01 -0.000000e+00
   outer loop
     vertex -6.978841e+00 -6.295675e+00  3.000000e+00
     vertex -6.978841e+00 -6.295675e+00  0.000000e+00
     vertex -6.565310e+00 -6.336404e+00  0.000000e+00
   endloop
 endfacet
 facet normal -9.801714e-02 -9.951847e-01  0.000000e+00
   outer loop
     vertex -6.565310e+00 -6.336404e+00  3.000000e+00
     vertex -6.978841e+00 -6.295675e+00  3.000000e+00
     vertex -6.565310e+00 -6.336404e+00  0.000000e+00
   endloop
 endfacet
 facet normal -3.271908e-02 -9.994646e-01 -0.000000e+00
   outer loop
     vertex -6.565310e+00 -6.336404e+00  3.000000e+00
     vertex -6.565310e+00 -6.336404e+00  0.000000e+00
     vertex -6.150000e+00 -6.350000e+00  0.000000e+00
   endloop
 endfacet
 facet normal -3.271908e-02 -9.994646e-01  0.000000e+00
   outer loop
     vertex -6.150000e+00 -6.350000e+00  3.000000e+00
     vertex -6.565310e+00 -6.336404e+00  3.000000e+00
     vertex -6.150000e+00 -6.350000e+00  0.000000e+00
   endloop
 endfacet
 facet normal -9.738770e-01 -2.270763e-01 -0.000000e+00
   outer loop
     vertex -1.237799e+01 -1.238824e+00  3.000000e+00
     vertex -1.237799e+01 -1.238824e+00  0.000000e+00
     vertex -1.228363e+01 -1.643501e+00  0.000000e+00
   endloop
 endfacet
 facet normal -5.280679e-01  8.492022e-01  0.000000e+00
   outer loop
     vertex -9.325000e+00  5.499261e+00  3.000000e+00
     vertex -9.325000e+00  5.499261e+00  0.000000e+00
     vertex -9.677871e+00  5.279832e+00  0.000000e+00
   endloop
 endfacet
 facet normal -9.738770e-01 -2.270763e-01  0.000000e+00
   outer loop
     vertex -1.228363e+01 -1.643501e+00  3.000000e+00
     vertex -1.237799e+01 -1.238824e+00  3.000000e+00
     vertex -1.228363e+01 -1.643501e+00  0.000000e+00
   endloop
 endfacet
 facet normal -5.280679e-01  8.492022e-01  0.000000e+00
   outer loop
     vertex -9.677871e+00  5.279832e+00  3.000000e+00
     vertex -9.325000e+00  5.499261e+00  3.000000e+00
     vertex -9.677871e+00  5.279832e+00  0.000000e+00
   endloop
 endfacet
 facet normal -9.569403e-01 -2.902847e-01 -0.000000e+00
   outer loop
     vertex -1.216301e+01 -2.041141e+00  3.000000e+00
     vertex -1.228363e+01 -1.643501e+00  3.000000e+00
     vertex -1.228363e+01 -1.643501e+00  0.000000e+00
   endloop
 endfacet
 facet normal -9.569403e-01 -2.902847e-01  0.000000e+00
   outer loop
     vertex -1.216301e+01 -2.041141e+00  3.000000e+00
     vertex -1.228363e+01 -1.643501e+00  0.000000e+00
     vertex -1.216301e+01 -2.041141e+00  0.000000e+00
   endloop
 endfacet
 facet normal -5.824777e-01  8.128467e-01  0.000000e+00
   outer loop
     vertex -9.677871e+00  5.279832e+00  3.000000e+00
     vertex -9.677871e+00  5.279832e+00  0.000000e+00
     vertex -1.001564e+01  5.037794e+00  0.000000e+00
   endloop
 endfacet
 facet normal -9.359059e-01 -3.522500e-01 -0.000000e+00
   outer loop
     vertex -1.201664e+01 -2.430040e+00  3.000000e+00
     vertex -1.216301e+01 -2.041141e+00  3.000000e+00
     vertex -1.216301e+01 -2.041141e+00  0.000000e+00
   endloop
 endfacet
 facet normal -5.824777e-01  8.128467e-01  0.000000e+00
   outer loop
     vertex -1.001564e+01  5.037794e+00  3.000000e+00
     vertex -9.677871e+00  5.279832e+00  3.000000e+00
     vertex -1.001564e+01  5.037794e+00  0.000000e+00
   endloop
 endfacet
 facet normal -6.343933e-01  7.730105e-01  0.000000e+00
   outer loop
     vertex -1.033685e+01  4.774183e+00  3.000000e+00
     vertex -1.001564e+01  5.037794e+00  3.000000e+00
     vertex -1.001564e+01  5.037794e+00  0.000000e+00
   endloop
 endfacet
 facet normal -9.359059e-01 -3.522500e-01  0.000000e+00
   outer loop
     vertex -1.201664e+01 -2.430040e+00  3.000000e+00
     vertex -1.216301e+01 -2.041141e+00  0.000000e+00
     vertex -1.201664e+01 -2.430040e+00  0.000000e+00
   endloop
 endfacet
 facet normal -6.343933e-01  7.730105e-01  0.000000e+00
   outer loop
     vertex -1.033685e+01  4.774183e+00  3.000000e+00
     vertex -1.001564e+01  5.037794e+00  0.000000e+00
     vertex -1.033685e+01  4.774183e+00  0.000000e+00
   endloop
 endfacet
 facet normal -6.835923e-01  7.298641e-01  0.000000e+00
   outer loop
     vertex -1.064013e+01  4.490128e+00  3.000000e+00
     vertex -1.033685e+01  4.774183e+00  3.000000e+00
     vertex -1.033685e+01  4.774183e+00  0.000000e+00
   endloop
 endfacet
 facet normal -9.108638e-01 -4.127070e-01 -0.000000e+00
   outer loop
     vertex -1.201664e+01 -2.430040e+00  3.000000e+00
     vertex -1.201664e+01 -2.430040e+00  0.000000e+00
     vertex -1.184514e+01 -2.808533e+00  0.000000e+00
   endloop
 endfacet
 facet normal -9.108638e-01 -4.127070e-01  0.000000e+00
   outer loop
     vertex -1.184514e+01 -2.808533e+00  3.000000e+00
     vertex -1.201664e+01 -2.430040e+00  3.000000e+00
     vertex -1.184514e+01 -2.808533e+00  0.000000e+00
   endloop
 endfacet
 facet normal -6.835923e-01  7.298641e-01  0.000000e+00
   outer loop
     vertex -1.064013e+01  4.490128e+00  3.000000e+00
     vertex -1.033685e+01  4.774183e+00  0.000000e+00
     vertex -1.064013e+01  4.490128e+00  0.000000e+00
   endloop
 endfacet
 facet normal -8.819213e-01 -4.713967e-01 -0.000000e+00
   outer loop
     vertex -1.184514e+01 -2.808533e+00  3.000000e+00
     vertex -1.184514e+01 -2.808533e+00  0.000000e+00
     vertex -1.164926e+01 -3.175000e+00  0.000000e+00
   endloop
 endfacet
 facet normal -7.298641e-01  6.835923e-01  0.000000e+00
   outer loop
     vertex -1.064013e+01  4.490128e+00  3.000000e+00
     vertex -1.064013e+01  4.490128e+00  0.000000e+00
     vertex -1.092418e+01  4.186846e+00  0.000000e+00
   endloop
 endfacet
 facet normal -8.819213e-01 -4.713967e-01  0.000000e+00
   outer loop
     vertex -1.164926e+01 -3.175000e+00  3.000000e+00
     vertex -1.184514e+01 -2.808533e+00  3.000000e+00
     vertex -1.164926e+01 -3.175000e+00  0.000000e+00
   endloop
 endfacet
 facet normal -7.298641e-01  6.835923e-01  0.000000e+00
   outer loop
     vertex -1.092418e+01  4.186846e+00  3.000000e+00
     vertex -1.064013e+01  4.490128e+00  3.000000e+00
     vertex -1.092418e+01  4.186846e+00  0.000000e+00
   endloop
 endfacet
 facet normal -8.492022e-01 -5.280679e-01 -0.000000e+00
   outer loop
     vertex -1.164926e+01 -3.175000e+00  3.000000e+00
     vertex -1.164926e+01 -3.175000e+00  0.000000e+00
     vertex -1.142983e+01 -3.527871e+00  0.000000e+00
   endloop
 endfacet
 facet normal -7.730105e-01  6.343933e-01  0.000000e+00
   outer loop
     vertex -1.092418e+01  4.186846e+00  3.000000e+00
     vertex -1.092418e+01  4.186846e+00  0.000000e+00
     vertex -1.118779e+01  3.865635e+00  0.000000e+00
   endloop
 endfacet
 facet normal -8.492022e-01 -5.280679e-01  0.000000e+00
   outer loop
     vertex -1.142983e+01 -3.527871e+00  3.000000e+00
     vertex -1.164926e+01 -3.175000e+00  3.000000e+00
     vertex -1.142983e+01 -3.527871e+00  0.000000e+00
   endloop
 endfacet
 facet normal -7.730105e-01  6.343933e-01  0.000000e+00
   outer loop
     vertex -1.118779e+01  3.865635e+00  3.000000e+00
     vertex -1.092418e+01  4.186846e+00  3.000000e+00
     vertex -1.118779e+01  3.865635e+00  0.000000e+00
   endloop
 endfacet
 facet normal -8.128467e-01 -5.824777e-01 -0.000000e+00
   outer loop
     vertex -1.142983e+01 -3.527871e+00  3.000000e+00
     vertex -1.142983e+01 -3.527871e+00  0.000000e+00
     vertex -1.118779e+01 -3.865635e+00  0.000000e+00
   endloop
 endfacet
 facet normal -8.128467e-01  5.824777e-01  0.000000e+00
   outer loop
     vertex -1.118779e+01  3.865635e+00  3.000000e+00
     vertex -1.118779e+01  3.865635e+00  0.000000e+00
     vertex -1.142983e+01  3.527871e+00  0.000000e+00
   endloop
 endfacet
 facet normal -8.128467e-01 -5.824777e-01  0.000000e+00
   outer loop
     vertex -1.118779e+01 -3.865635e+00  3.000000e+00
     vertex -1.142983e+01 -3.527871e+00  3.000000e+00
     vertex -1.118779e+01 -3.865635e+00  0.000000e+00
   endloop
 endfacet
 facet normal -8.128467e-01  5.824777e-01  0.000000e+00
   outer loop
     vertex -1.142983e+01  3.527871e+00  3.000000e+00
     vertex -1.118779e+01  3.865635e+00  3.000000e+00
     vertex -1.142983e+01  3.527871e+00  0.000000e+00
   endloop
 endfacet
 facet normal -7.730105e-01 -6.343933e-01 -0.000000e+00
   outer loop
     vertex -1.092418e+01 -4.186846e+00  3.000000e+00
     vertex -1.118779e+01 -3.865635e+00  3.000000e+00
     vertex -1.118779e+01 -3.865635e+00  0.000000e+00
   endloop
 endfacet
 facet normal -7.730105e-01 -6.343933e-01  0.000000e+00
   outer loop
     vertex -1.092418e+01 -4.186846e+00  3.000000e+00
     vertex -1.118779e+01 -3.865635e+00  0.000000e+00
     vertex -1.092418e+01 -4.186846e+00  0.000000e+00
   endloop
 endfacet
 facet normal -8.492022e-01  5.280679e-01  0.000000e+00
   outer loop
     vertex -1.164926e+01  3.175000e+00  3.000000e+00
     vertex -1.142983e+01  3.527871e+00  3.000000e+00
     vertex -1.164926e+01  3.175000e+00  0.000000e+00
   endloop
 endfacet
 facet normal -8.492022e-01  5.280679e-01  0.000000e+00
   outer loop
     vertex -1.142983e+01  3.527871e+00  3.000000e+00
     vertex -1.142983e+01  3.527871e+00  0.000000e+00
     vertex -1.164926e+01  3.175000e+00  0.000000e+00
   endloop
 endfacet
 facet normal -7.298641e-01 -6.835923e-01 -0.000000e+00
   outer loop
     vertex -1.092418e+01 -4.186846e+00  3.000000e+00
     vertex -1.092418e+01 -4.186846e+00  0.000000e+00
     vertex -1.064013e+01 -4.490128e+00  0.000000e+00
   endloop
 endfacet
 facet normal -7.298641e-01 -6.835923e-01  0.000000e+00
   outer loop
     vertex -1.064013e+01 -4.490128e+00  3.000000e+00
     vertex -1.092418e+01 -4.186846e+00  3.000000e+00
     vertex -1.064013e+01 -4.490128e+00  0.000000e+00
   endloop
 endfacet
 facet normal -8.819213e-01  4.713967e-01  0.000000e+00
   outer loop
     vertex -1.184514e+01  2.808533e+00  3.000000e+00
     vertex -1.164926e+01  3.175000e+00  3.000000e+00
     vertex -1.184514e+01  2.808533e+00  0.000000e+00
   endloop
 endfacet
 facet normal  0.000000e+00  0.000000e+00 -1.000000e+00
   outer loop
     vertex  1.064013e+01  4.490128e+00  0.000000e+00
     vertex  1.092418e+01  4.186846e+00  0.000000e+00
     vertex  1.118779e+01  3.865635e+00  0.000000e+00
   endloop
 endfacet
 facet normal  0.000000e+00  0.000000e+00 -1.000000e+00
   outer loop
     vertex  1.033685e+01  4.774183e+00  0.000000e+00
     vertex  1.118779e+01  3.865635e+00  0.000000e+00
     vertex  1.142983e+01  3.527871e+00  0.000000e+00
   endloop
 endfacet
 facet normal  0.000000e+00  0.000000e+00 -1.000000e+00
   outer loop
     vertex  1.092418e+01 -4.186846e+00  0.000000e+00
     vertex  1.064013e+01 -4.490128e+00  0.000000e+00
     vertex  1.033685e+01 -4.774183e+00  0.000000e+00
   endloop
 endfacet
 facet normal -0.000000e+00 -0.000000e+00 -1.000000e+00
   outer loop
     vertex -1.250000e+01 -2.797515e-15  0.000000e+00
     vertex -1.244567e+01 -8.288413e-01  0.000000e+00
     vertex -1.248640e+01 -4.153099e-01  0.000000e+00
   endloop
 endfacet
 facet normal  0.000000e+00  0.000000e+00 -1.000000e+00
   outer loop
     vertex  1.033685e+01  4.774183e+00  0.000000e+00
     vertex  1.216301e+01  2.041141e+00  0.000000e+00
     vertex  1.248640e+01 -4.153099e-01  0.000000e+00
   endloop
 endfacet
 facet normal  0.000000e+00  0.000000e+00 -1.000000e+00
   outer loop
     vertex  1.033685e+01  4.774183e+00  0.000000e+00
     vertex  1.142983e+01  3.527871e+00  0.000000e+00
     vertex  1.216301e+01  2.041141e+00  0.000000e+00
   endloop
 endfacet
 facet normal -0.000000e+00 -0.000000e+00 -1.000000e+00
   outer loop
     vertex -6.150000e+00  6.350000e+00  0.000000e+00
     vertex  6.150000e+00 -6.350000e+00  0.000000e+00
     vertex -6.150000e+00 -6.350000e+00  0.000000e+00
   endloop
 endfacet
 facet normal  0.000000e+00  0.000000e+00 -1.000000e+00
   outer loop
     vertex  1.033685e+01  4.774183e+00  0.000000e+00
     vertex  1.064013e+01  4.490128e+00  0.000000e+00
     vertex  1.118779e+01  3.865635e+00  0.000000e+00
   endloop
 endfacet
 facet normal  0.000000e+00  0.000000e+00 -1.000000e+00
   outer loop
     vertex -6.150000e+00  6.350000e+00  0.000000e+00
     vertex  6.150000e+00  6.350000e+00  0.000000e+00
     vertex  6.150000e+00 -6.350000e+00  0.000000e+00
   endloop
 endfacet
 facet normal  0.000000e+00  0.000000e+00 -1.000000e+00
   outer loop
     vertex  9.677871e+00  5.279832e+00  0.000000e+00
     vertex  1.001564e+01  5.037794e+00  0.000000e+00
     vertex  1.033685e+01  4.774183e+00  0.000000e+00
   endloop
 endfacet
 facet normal  0.000000e+00 -0.000000e+00 -1.000000e+00
   outer loop
     vertex  9.677871e+00 -5.279832e+00  0.000000e+00
     vertex  1.092418e+01 -4.186846e+00  0.000000e+00
     vertex  1.033685e+01 -4.774183e+00  0.000000e+00
   endloop
 endfacet
 facet normal -0.000000e+00 -0.000000e+00 -1.000000e+00
   outer loop
     vertex -6.565310e+00  6.336404e+00  0.000000e+00
     vertex -6.150000e+00 -6.350000e+00  0.000000e+00
     vertex -1.033685e+01 -4.774183e+00  0.000000e+00
   endloop
 endfacet
 facet normal  0.000000e+00 -0.000000e+00 -1.000000e+00
   outer loop
     vertex  9.677871e+00 -5.279832e+00  0.000000e+00
     vertex  1.033685e+01 -4.774183e+00  0.000000e+00
     vertex  1.001564e+01 -5.037794e+00  0.000000e+00
   endloop
 endfacet
 facet normal -0.000000e+00  0.000000e+00 -1.000000e+00
   outer loop
     vertex -6.565310e+00  6.336404e+00  0.000000e+00
     vertex -1.033685e+01 -4.774183e+00  0.000000e+00
     vertex -1.228363e+01 -1.643501e+00  0.000000e+00
   endloop
 endfacet
 facet normal -0.000000e+00  0.000000e+00 -1.000000e+00
   outer loop
     vertex -6.565310e+00  6.336404e+00  0.000000e+00
     vertex -1.244567e+01 -8.288413e-01  0.000000e+00
     vertex -1.250000e+01 -2.797515e-15  0.000000e+00
   endloop
 endfacet
 facet normal  0.000000e+00  0.000000e+00 -1.000000e+00
   outer loop
     vertex -6.565310e+00  6.336404e+00  0.000000e+00
     vertex -6.150000e+00  6.350000e+00  0.000000e+00
     vertex -6.150000e+00 -6.350000e+00  0.000000e+00
   endloop
 endfacet
 facet normal -0.000000e+00  0.000000e+00 -1.000000e+00
   outer loop
     vertex -6.565310e+00  6.336404e+00  0.000000e+00
     vertex -1.250000e+01 -2.797515e-15  0.000000e+00
     vertex -1.248640e+01  4.153099e-01  0.000000e+00
   endloop
 endfacet
 facet normal -0.000000e+00  0.000000e+00 -1.000000e+00
   outer loop
     vertex -6.565310e+00  6.336404e+00  0.000000e+00
     vertex -1.237799e+01 -1.238824e+00  0.000000e+00
     vertex -1.244567e+01 -8.288413e-01  0.000000e+00
   endloop
 endfacet
 facet normal -0.000000e+00  0.000000e+00 -1.000000e+00
   outer loop
     vertex -6.565310e+00  6.336404e+00  0.000000e+00
     vertex -1.228363e+01 -1.643501e+00  0.000000e+00
     vertex -1.237799e+01 -1.238824e+00  0.000000e+00
   endloop
 endfacet
 facet normal  0.000000e+00  0.000000e+00 -1.000000e+00
   outer loop
     vertex  1.164926e+01 -3.175000e+00  0.000000e+00
     vertex  1.142983e+01 -3.527871e+00  0.000000e+00
     vertex  1.118779e+01 -3.865635e+00  0.000000e+00
   endloop
 endfacet
 facet normal  0.000000e+00 -0.000000e+00 -1.000000e+00
   outer loop
     vertex -1.244567e+01  8.288413e-01  0.000000e+00
     vertex -6.565310e+00  6.336404e+00  0.000000e+00
     vertex -1.248640e+01  4.153099e-01  0.000000e+00
   endloop
 endfacet
 facet normal  0.000000e+00  0.000000e+00 -1.000000e+00
   outer loop
     vertex  8.580040e+00  5.866635e+00  0.000000e+00
     vertex  9.325000e+00  5.499261e+00  0.000000e+00
     vertex  9.677871e+00  5.279832e+00  0.000000e+00
   endloop
 endfacet
 facet normal  0.000000e+00  0.000000e+00 -1.000000e+00
   outer loop
     vertex  8.580040e+00  5.866635e+00  0.000000e+00
     vertex  8.958533e+00  5.695142e+00  0.000000e+00
     vertex  9.325000e+00  5.499261e+00  0.000000e+00
   endloop
 endfacet
 facet normal  0.000000e+00  0.000000e+00 -1.000000e+00
   outer loop
     vertex  8.580040e+00  5.866635e+00  0.000000e+00
     vertex  1.033685e+01  4.774183e+00  0.000000e+00
     vertex  1.248640e+01 -4.153099e-01  0.000000e+00
   endloop
 endfacet
 facet normal  0.000000e+00  0.000000e+00 -1.000000e+00
   outer loop
     vertex  8.580040e+00  5.866635e+00  0.000000e+00
     vertex  9.677871e+00  5.279832e+00  0.000000e+00
     vertex  1.033685e+01  4.774183e+00  0.000000e+00
   endloop
 endfacet
 facet normal  0.000000e+00  0.000000e+00 -1.000000e+00
   outer loop
     vertex -1.237799e+01  1.238824e+00  0.000000e+00
     vertex -6.978841e+00  6.295675e+00  0.000000e+00
     vertex -6.565310e+00  6.336404e+00  0.000000e+00
   endloop
 endfacet
 facet normal  0.000000e+00 -0.000000e+00 -1.000000e+00
   outer loop
     vertex -1.237799e+01  1.238824e+00  0.000000e+00
     vertex -6.565310e+00  6.336404e+00  0.000000e+00
     vertex -1.244567e+01  8.288413e-01  0.000000e+00
   endloop
 endfacet
 facet normal  0.000000e+00  0.000000e+00 -1.000000e+00
   outer loop
     vertex  7.793501e+00  6.133629e+00  0.000000e+00
     vertex  8.191141e+00  6.013006e+00  0.000000e+00
     vertex  8.580040e+00  5.866635e+00  0.000000e+00
   endloop
 endfacet
 facet normal  0.000000e+00  0.000000e+00 -1.000000e+00
   outer loop
     vertex  1.184514e+01 -2.808533e+00  0.000000e+00
     vertex  1.164926e+01 -3.175000e+00  0.000000e+00
     vertex  1.118779e+01 -3.865635e+00  0.000000e+00
   endloop
 endfacet
 facet normal  0.000000e+00  0.000000e+00 -1.000000e+00
   outer loop
     vertex  7.388824e+00  6.227987e+00  0.000000e+00
     vertex  7.793501e+00  6.133629e+00  0.000000e+00
     vertex  8.580040e+00  5.866635e+00  0.000000e+00
   endloop
 endfacet
 facet normal  0.000000e+00 -0.000000e+00 -1.000000e+00
   outer loop
     vertex  8.580040e+00 -5.866635e+00  0.000000e+00
     vertex  9.325000e+00 -5.499261e+00  0.000000e+00
     vertex  8.958533e+00 -5.695142e+00  0.000000e+00
   endloop
 endfacet
 facet normal  0.000000e+00 -0.000000e+00 -1.000000e+00
   outer loop
     vertex  6.978841e+00  6.295675e+00  0.000000e+00
     vertex  1.248640e+01 -4.153099e-01  0.000000e+00
     vertex  1.118779e+01 -3.865635e+00  0.000000e+00
   endloop
 endfacet
 facet normal  0.000000e+00  0.000000e+00 -1.000000e+00
   outer loop
     vertex -8.580040e+00  5.866635e+00  0.000000e+00
     vertex -7.388824e+00  6.227987e+00  0.000000e+00
     vertex -6.978841e+00  6.295675e+00  0.000000e+00
   endloop
 endfacet
 facet normal  0.000000e+00  0.000000e+00 -1.000000e+00
   outer loop
     vertex  6.978841e+00  6.295675e+00  0.000000e+00
     vertex  8.580040e+00  5.866635e+00  0.000000e+00
     vertex  1.248640e+01 -4.153099e-01  0.000000e+00
   endloop
 endfacet
 facet normal  0.000000e+00  0.000000e+00 -1.000000e+00
   outer loop
     vertex -8.580040e+00  5.866635e+00  0.000000e+00
     vertex -7.793501e+00  6.133629e+00  0.000000e+00
     vertex -7.388824e+00  6.227987e+00  0.000000e+00
   endloop
 endfacet
 facet normal  0.000000e+00  0.000000e+00 -1.000000e+00
   outer loop
     vertex -8.580040e+00  5.866635e+00  0.000000e+00
     vertex -8.191141e+00  6.013006e+00  0.000000e+00
     vertex -7.793501e+00  6.133629e+00  0.000000e+00
   endloop
 endfacet
 facet normal  0.000000e+00  0.000000e+00 -1.000000e+00
   outer loop
     vertex  6.978841e+00  6.295675e+00  0.000000e+00
     vertex  7.388824e+00  6.227987e+00  0.000000e+00
     vertex  8.580040e+00  5.866635e+00  0.000000e+00
   endloop
 endfacet
 facet normal  0.000000e+00 -0.000000e+00 -1.000000e+00
   outer loop
     vertex  6.565310e+00  6.336404e+00  0.000000e+00
     vertex  1.118779e+01 -3.865635e+00  0.000000e+00
     vertex  6.565310e+00 -6.336404e+00  0.000000e+00
   endloop
 endfacet
 facet normal  0.000000e+00  0.000000e+00 -1.000000e+00
   outer loop
     vertex  6.565310e+00  6.336404e+00  0.000000e+00
     vertex  6.978841e+00  6.295675e+00  0.000000e+00
     vertex  1.118779e+01 -3.865635e+00  0.000000e+00
   endloop
 endfacet
 facet normal  0.000000e+00 -0.000000e+00 -1.000000e+00
   outer loop
     vertex  8.191141e+00 -6.013006e+00  0.000000e+00
     vertex  9.677871e+00 -5.279832e+00  0.000000e+00
     vertex  9.325000e+00 -5.499261e+00  0.000000e+00
   endloop
 endfacet
 facet normal  0.000000e+00 -0.000000e+00 -1.000000e+00
   outer loop
     vertex  8.191141e+00 -6.013006e+00  0.000000e+00
     vertex  1.092418e+01 -4.186846e+00  0.000000e+00
     vertex  9.677871e+00 -5.279832e+00  0.000000e+00
   endloop
 endfacet
 facet normal  0.000000e+00 -0.000000e+00 -1.000000e+00
   outer loop
     vertex  8.191141e+00 -6.013006e+00  0.000000e+00
     vertex  9.325000e+00 -5.499261e+00  0.000000e+00
     vertex  8.580040e+00 -5.866635e+00  0.000000e+00
   endloop
 endfacet
 facet normal -0.000000e+00  0.000000e+00 -1.000000e+00
   outer loop
     vertex -1.184514e+01  2.808533e+00  0.000000e+00
     vertex -1.216301e+01  2.041141e+00  0.000000e+00
     vertex -1.201664e+01  2.430040e+00  0.000000e+00
   endloop
 endfacet
 facet normal  0.000000e+00 -0.000000e+00 -1.000000e+00
   outer loop
     vertex  6.150000e+00  6.350000e+00  0.000000e+00
     vertex  6.565310e+00 -6.336404e+00  0.000000e+00
     vertex  6.150000e+00 -6.350000e+00  0.000000e+00
   endloop
 endfacet
 facet normal  0.000000e+00  0.000000e+00 -1.000000e+00
   outer loop
     vertex  6.150000e+00  6.350000e+00  0.000000e+00
     vertex  6.565310e+00  6.336404e+00  0.000000e+00
     vertex  6.565310e+00 -6.336404e+00  0.000000e+00
   endloop
 endfacet
 facet normal  0.000000e+00  0.000000e+00 -1.000000e+00
   outer loop
     vertex -8.958533e+00  5.695142e+00  0.000000e+00
     vertex -8.580040e+00  5.866635e+00  0.000000e+00
     vertex -6.978841e+00  6.295675e+00  0.000000e+00
   endloop
 endfacet
 facet normal  0.000000e+00  0.000000e+00 -1.000000e+00
   outer loop
     vertex  1.216301e+01 -2.041141e+00  0.000000e+00
     vertex  1.201664e+01 -2.430040e+00  0.000000e+00
     vertex  1.184514e+01 -2.808533e+00  0.000000e+00
   endloop
 endfacet
 facet normal  0.000000e+00 -0.000000e+00 -1.000000e+00
   outer loop
     vertex  7.793501e+00 -6.133629e+00  0.000000e+00
     vertex  1.118779e+01 -3.865635e+00  0.000000e+00
     vertex  1.092418e+01 -4.186846e+00  0.000000e+00
   endloop
 endfacet
 facet normal  0.000000e+00 -0.000000e+00 -1.000000e+00
   outer loop
     vertex  7.793501e+00 -6.133629e+00  0.000000e+00
     vertex  1.092418e+01 -4.186846e+00  0.000000e+00
     vertex  8.191141e+00 -6.013006e+00  0.000000e+00
   endloop
 endfacet
 facet normal -0.000000e+00 -0.000000e+00 -1.000000e+00
   outer loop
     vertex -6.978841e+00 -6.295675e+00  0.000000e+00
     vertex -6.150000e+00 -6.350000e+00  0.000000e+00
     vertex -6.565310e+00 -6.336404e+00  0.000000e+00
   endloop
 endfacet
 facet normal -0.000000e+00 -0.000000e+00 -1.000000e+00
   outer loop
     vertex -7.388824e+00 -6.227987e+00  0.000000e+00
     vertex -6.150000e+00 -6.350000e+00  0.000000e+00
     vertex -6.978841e+00 -6.295675e+00  0.000000e+00
   endloop
 endfacet
 facet normal  0.000000e+00  0.000000e+00 -1.000000e+00
   outer loop
     vertex  1.228363e+01 -1.643501e+00  0.000000e+00
     vertex  1.184514e+01 -2.808533e+00  0.000000e+00
     vertex  1.118779e+01 -3.865635e+00  0.000000e+00
   endloop
 endfacet
 facet normal  0.000000e+00  0.000000e+00 -1.000000e+00
   outer loop
     vertex  1.228363e+01 -1.643501e+00  0.000000e+00
     vertex  1.216301e+01 -2.041141e+00  0.000000e+00
     vertex  1.184514e+01 -2.808533e+00  0.000000e+00
   endloop
 endfacet
 facet normal -0.000000e+00  0.000000e+00 -1.000000e+00
   outer loop
     vertex -1.142983e+01  3.527871e+00  0.000000e+00
     vertex -1.216301e+01  2.041141e+00  0.000000e+00
     vertex -1.184514e+01  2.808533e+00  0.000000e+00
   endloop
 endfacet
 facet normal -0.000000e+00  0.000000e+00 -1.000000e+00
   outer loop
     vertex -1.142983e+01  3.527871e+00  0.000000e+00
     vertex -1.184514e+01  2.808533e+00  0.000000e+00
     vertex -1.164926e+01  3.175000e+00  0.000000e+00
   endloop
 endfacet
 facet normal -0.000000e+00  0.000000e+00 -1.000000e+00
   outer loop
     vertex -1.142983e+01  3.527871e+00  0.000000e+00
     vertex -1.228363e+01  1.643501e+00  0.000000e+00
     vertex -1.216301e+01  2.041141e+00  0.000000e+00
   endloop
 endfacet
 facet normal -0.000000e+00 -0.000000e+00 -1.000000e+00
   outer loop
     vertex -8.191141e+00 -6.013006e+00  0.000000e+00
     vertex -7.388824e+00 -6.227987e+00  0.000000e+00
     vertex -7.793501e+00 -6.133629e+00  0.000000e+00
   endloop
 endfacet
 facet normal  0.000000e+00  0.000000e+00 -1.000000e+00
   outer loop
     vertex -9.677871e+00  5.279832e+00  0.000000e+00
     vertex -9.325000e+00  5.499261e+00  0.000000e+00
     vertex -8.958533e+00  5.695142e+00  0.000000e+00
   endloop
 endfacet
 facet normal -0.000000e+00 -0.000000e+00 -1.000000e+00
   outer loop
     vertex -8.580040e+00 -5.866635e+00  0.000000e+00
     vertex -6.150000e+00 -6.350000e+00  0.000000e+00
     vertex -7.388824e+00 -6.227987e+00  0.000000e+00
   endloop
 endfacet
 facet normal -0.000000e+00 -0.000000e+00 -1.000000e+00
   outer loop
     vertex -8.580040e+00 -5.866635e+00  0.000000e+00
     vertex -7.388824e+00 -6.227987e+00  0.000000e+00
     vertex -8.191141e+00 -6.013006e+00  0.000000e+00
   endloop
 endfacet
 facet normal  0.000000e+00  0.000000e+00 -1.000000e+00
   outer loop
     vertex -9.677871e+00  5.279832e+00  0.000000e+00
     vertex -8.958533e+00  5.695142e+00  0.000000e+00
     vertex -6.978841e+00  6.295675e+00  0.000000e+00
   endloop
 endfacet
 facet normal  0.000000e+00 -0.000000e+00 -1.000000e+00
   outer loop
     vertex  6.978841e+00 -6.295675e+00  0.000000e+00
     vertex  7.793501e+00 -6.133629e+00  0.000000e+00
     vertex  7.388824e+00 -6.227987e+00  0.000000e+00
   endloop
 endfacet
 facet normal -0.000000e+00 -0.000000e+00 -1.000000e+00
   outer loop
     vertex -8.958533e+00 -5.695142e+00  0.000000e+00
     vertex -6.150000e+00 -6.350000e+00  0.000000e+00
     vertex -8.580040e+00 -5.866635e+00  0.000000e+00
   endloop
 endfacet
 facet normal -0.000000e+00 -0.000000e+00 -1.000000e+00
   outer loop
     vertex -9.325000e+00 -5.499261e+00  0.000000e+00
     vertex -6.150000e+00 -6.350000e+00  0.000000e+00
     vertex -8.958533e+00 -5.695142e+00  0.000000e+00
   endloop
 endfacet
 facet normal  0.000000e+00 -0.000000e+00 -1.000000e+00
   outer loop
     vertex -1.092418e+01  4.186846e+00  0.000000e+00
     vertex -6.978841e+00  6.295675e+00  0.000000e+00
     vertex -1.237799e+01  1.238824e+00  0.000000e+00
   endloop
 endfacet
 facet normal  0.000000e+00 -0.000000e+00 -1.000000e+00
   outer loop
     vertex  6.565310e+00 -6.336404e+00  0.000000e+00
     vertex  1.118779e+01 -3.865635e+00  0.000000e+00
     vertex  7.793501e+00 -6.133629e+00  0.000000e+00
   endloop
 endfacet
 facet normal -0.000000e+00  0.000000e+00 -1.000000e+00
   outer loop
     vertex -1.092418e+01  4.186846e+00  0.000000e+00
     vertex -1.142983e+01  3.527871e+00  0.000000e+00
     vertex -1.118779e+01  3.865635e+00  0.000000e+00
   endloop
 endfacet
 facet normal  0.000000e+00 -0.000000e+00 -1.000000e+00
   outer loop
     vertex  6.565310e+00 -6.336404e+00  0.000000e+00
     vertex  7.793501e+00 -6.133629e+00  0.000000e+00
     vertex  6.978841e+00 -6.295675e+00  0.000000e+00
   endloop
 endfacet
 facet normal -0.000000e+00  0.000000e+00 -1.000000e+00
   outer loop
     vertex -1.092418e+01  4.186846e+00  0.000000e+00
     vertex -1.237799e+01  1.238824e+00  0.000000e+00
     vertex -1.228363e+01  1.643501e+00  0.000000e+00
   endloop
 endfacet
 facet normal -0.000000e+00 -0.000000e+00 -1.000000e+00
   outer loop
     vertex -9.677871e+00 -5.279832e+00  0.000000e+00
     vertex -6.150000e+00 -6.350000e+00  0.000000e+00
     vertex -9.325000e+00 -5.499261e+00  0.000000e+00
   endloop
 endfacet
 facet normal  0.000000e+00  0.000000e+00 -1.000000e+00
   outer loop
     vertex -1.092418e+01  4.186846e+00  0.000000e+00
     vertex -9.677871e+00  5.279832e+00  0.000000e+00
     vertex -6.978841e+00  6.295675e+00  0.000000e+00
   endloop
 endfacet
 facet normal -0.000000e+00  0.000000e+00 -1.000000e+00
   outer loop
     vertex -1.092418e+01  4.186846e+00  0.000000e+00
     vertex -1.228363e+01  1.643501e+00  0.000000e+00
     vertex -1.142983e+01  3.527871e+00  0.000000e+00
   endloop
 endfacet
 facet normal -0.000000e+00 -0.000000e+00 -1.000000e+00
   outer loop
     vertex -1.001564e+01 -5.037794e+00  0.000000e+00
     vertex -6.150000e+00 -6.350000e+00  0.000000e+00
     vertex -9.677871e+00 -5.279832e+00  0.000000e+00
   endloop
 endfacet
 facet normal  0.000000e+00  0.000000e+00 -1.000000e+00
   outer loop
     vertex  1.248640e+01 -4.153099e-01  0.000000e+00
     vertex  1.237799e+01 -1.238824e+00  0.000000e+00
     vertex  1.228363e+01 -1.643501e+00  0.000000e+00
   endloop
 endfacet
 facet normal  0.000000e+00  0.000000e+00 -1.000000e+00
   outer loop
     vertex  1.248640e+01 -4.153099e-01  0.000000e+00
     vertex  1.244567e+01 -8.288413e-01  0.000000e+00
     vertex  1.237799e+01 -1.238824e+00  0.000000e+00
   endloop
 endfacet
 facet normal  0.000000e+00  0.000000e+00 -1.000000e+00
   outer loop
     vertex  1.248640e+01 -4.153099e-01  0.000000e+00
     vertex  1.228363e+01 -1.643501e+00  0.000000e+00
     vertex  1.118779e+01 -3.865635e+00  0.000000e+00
   endloop
 endfacet
 facet normal  0.000000e+00  0.000000e+00 -1.000000e+00
   outer loop
     vertex -1.064013e+01  4.490128e+00  0.000000e+00
     vertex -1.001564e+01  5.037794e+00  0.000000e+00
     vertex -9.677871e+00  5.279832e+00  0.000000e+00
   endloop
 endfacet
 facet normal  0.000000e+00  0.000000e+00 -1.000000e+00
   outer loop
     vertex -1.064013e+01  4.490128e+00  0.000000e+00
     vertex -1.033685e+01  4.774183e+00  0.000000e+00
     vertex -1.001564e+01  5.037794e+00  0.000000e+00
   endloop
 endfacet
 facet normal  0.000000e+00 -0.000000e+00 -1.000000e+00
   outer loop
     vertex -1.064013e+01  4.490128e+00  0.000000e+00
     vertex -9.677871e+00  5.279832e+00  0.000000e+00
     vertex -1.092418e+01  4.186846e+00  0.000000e+00
   endloop
 endfacet
 facet normal -0.000000e+00 -0.000000e+00 -1.000000e+00
   outer loop
     vertex -1.033685e+01 -4.774183e+00  0.000000e+00
     vertex -6.150000e+00 -6.350000e+00  0.000000e+00
     vertex -1.001564e+01 -5.037794e+00  0.000000e+00
   endloop
 endfacet
 facet normal  0.000000e+00 -0.000000e+00 -1.000000e+00
   outer loop
     vertex  1.248640e+01  4.153099e-01  0.000000e+00
     vertex  1.250000e+01  2.797515e-15  0.000000e+00
     vertex  1.248640e+01 -4.153099e-01  0.000000e+00
   endloop
 endfacet
 facet normal -0.000000e+00 -0.000000e+00 -1.000000e+00
   outer loop
     vertex -1.118779e+01 -3.865635e+00  0.000000e+00
     vertex -1.064013e+01 -4.490128e+00  0.000000e+00
     vertex -1.092418e+01 -4.186846e+00  0.000000e+00
   endloop
 endfacet
 facet normal -0.000000e+00 -0.000000e+00 -1.000000e+00
   outer loop
     vertex -1.118779e+01 -3.865635e+00  0.000000e+00
     vertex -1.033685e+01 -4.774183e+00  0.000000e+00
     vertex -1.064013e+01 -4.490128e+00  0.000000e+00
   endloop
 endfacet
 facet normal  0.000000e+00  0.000000e+00 -1.000000e+00
   outer loop
     vertex  1.237799e+01  1.238824e+00  0.000000e+00
     vertex  1.244567e+01  8.288413e-01  0.000000e+00
     vertex  1.248640e+01  4.153099e-01  0.000000e+00
   endloop
 endfacet
 facet normal -0.000000e+00 -0.000000e+00 -1.000000e+00
   outer loop
     vertex -1.142983e+01 -3.527871e+00  0.000000e+00
     vertex -1.033685e+01 -4.774183e+00  0.000000e+00
     vertex -1.118779e+01 -3.865635e+00  0.000000e+00
   endloop
 endfacet
 facet normal  0.000000e+00  0.000000e+00 -1.000000e+00
   outer loop
     vertex  1.216301e+01  2.041141e+00  0.000000e+00
     vertex  1.228363e+01  1.643501e+00  0.000000e+00
     vertex  1.237799e+01  1.238824e+00  0.000000e+00
   endloop
 endfacet
 facet normal  0.000000e+00  0.000000e+00 -1.000000e+00
   outer loop
     vertex  1.216301e+01  2.041141e+00  0.000000e+00
     vertex  1.248640e+01  4.153099e-01  0.000000e+00
     vertex  1.248640e+01 -4.153099e-01  0.000000e+00
   endloop
 endfacet
 facet normal  0.000000e+00  0.000000e+00 -1.000000e+00
   outer loop
     vertex  1.216301e+01  2.041141e+00  0.000000e+00
     vertex  1.237799e+01  1.238824e+00  0.000000e+00
     vertex  1.248640e+01  4.153099e-01  0.000000e+00
   endloop
 endfacet
 facet normal  0.000000e+00  0.000000e+00 -1.000000e+00
   outer loop
     vertex  1.184514e+01  2.808533e+00  0.000000e+00
     vertex  1.201664e+01  2.430040e+00  0.000000e+00
     vertex  1.216301e+01  2.041141e+00  0.000000e+00
   endloop
 endfacet
 facet normal -0.000000e+00 -0.000000e+00 -1.000000e+00
   outer loop
     vertex -1.228363e+01 -1.643501e+00  0.000000e+00
     vertex -1.033685e+01 -4.774183e+00  0.000000e+00
     vertex -1.142983e+01 -3.527871e+00  0.000000e+00
   endloop
 endfacet
 facet normal  0.000000e+00  0.000000e+00 -1.000000e+00
   outer loop
     vertex  1.164926e+01  3.175000e+00  0.000000e+00
     vertex  1.184514e+01  2.808533e+00  0.000000e+00
     vertex  1.216301e+01  2.041141e+00  0.000000e+00
   endloop
 endfacet
 facet normal -0.000000e+00 -0.000000e+00 -1.000000e+00
   outer loop
     vertex -1.228363e+01 -1.643501e+00  0.000000e+00
     vertex -1.201664e+01 -2.430040e+00  0.000000e+00
     vertex -1.216301e+01 -2.041141e+00  0.000000e+00
   endloop
 endfacet
 facet normal -0.000000e+00 -0.000000e+00 -1.000000e+00
   outer loop
     vertex -1.228363e+01 -1.643501e+00  0.000000e+00
     vertex -1.184514e+01 -2.808533e+00  0.000000e+00
     vertex -1.201664e+01 -2.430040e+00  0.000000e+00
   endloop
 endfacet
 facet normal -0.000000e+00 -0.000000e+00 -1.000000e+00
   outer loop
     vertex -1.228363e+01 -1.643501e+00  0.000000e+00
     vertex -1.164926e+01 -3.175000e+00  0.000000e+00
     vertex -1.184514e+01 -2.808533e+00  0.000000e+00
   endloop
 endfacet
 facet normal -0.000000e+00 -0.000000e+00 -1.000000e+00
   outer loop
     vertex -1.228363e+01 -1.643501e+00  0.000000e+00
     vertex -1.142983e+01 -3.527871e+00  0.000000e+00
     vertex -1.164926e+01 -3.175000e+00  0.000000e+00
   endloop
 endfacet
 facet normal  0.000000e+00  0.000000e+00 -1.000000e+00
   outer loop
     vertex  1.142983e+01  3.527871e+00  0.000000e+00
     vertex  1.164926e+01  3.175000e+00  0.000000e+00
     vertex  1.216301e+01  2.041141e+00  0.000000e+00
   endloop
 endfacet
 facet normal  0.000000e+00  0.000000e+00  1.000000e+00
   outer loop
     vertex  1.118779e+01  3.865635e+00  3.000000e+00
     vertex  1.092418e+01  4.186846e+00  3.000000e+00
     vertex  1.064013e+01  4.490128e+00  3.000000e+00
   endloop
 endfacet
 facet normal  0.000000e+00  0.000000e+00  1.000000e+00
   outer loop
     vertex  1.142983e+01  3.527871e+00  3.000000e+00
     vertex  1.118779e+01  3.865635e+00  3.000000e+00
     vertex  1.033685e+01  4.774183e+00  3.000000e+00
   endloop
 endfacet
 facet normal  0.000000e+00  0.000000e+00  1.000000e+00
   outer loop
     vertex  1.033685e+01 -4.774183e+00  3.000000e+00
     vertex  1.064013e+01 -4.490128e+00  3.000000e+00
     vertex  1.092418e+01 -4.186846e+00  3.000000e+00
   endloop
 endfacet
 facet normal -0.000000e+00 -0.000000e+00  1.000000e+00
   outer loop
     vertex -1.248640e+01 -4.153099e-01  3.000000e+00
     vertex -1.244567e+01 -8.288413e-01  3.000000e+00
     vertex -1.250000e+01 -2.797515e-15  3.000000e+00
   endloop
 endfacet
 facet normal  0.000000e+00  0.000000e+00  1.000000e+00
   outer loop
     vertex  1.248640e+01 -4.153099e-01  3.000000e+00
     vertex  1.216301e+01  2.041141e+00  3.000000e+00
     vertex  1.033685e+01  4.774183e+00  3.000000e+00
   endloop
 endfacet
 facet normal  0.000000e+00  0.000000e+00  1.000000e+00
   outer loop
     vertex  1.216301e+01  2.041141e+00  3.000000e+00
     vertex  1.142983e+01  3.527871e+00  3.000000e+00
     vertex  1.033685e+01  4.774183e+00  3.000000e+00
   endloop
 endfacet
 facet normal  0.000000e+00 -0.000000e+00  1.000000e+00
   outer loop
     vertex -6.150000e+00 -6.350000e+00  3.000000e+00
     vertex  6.150000e+00 -6.350000e+00  3.000000e+00
     vertex -6.150000e+00  6.350000e+00  3.000000e+00
   endloop
 endfacet
 facet normal  0.000000e+00  0.000000e+00  1.000000e+00
   outer loop
     vertex  1.118779e+01  3.865635e+00  3.000000e+00
     vertex  1.064013e+01  4.490128e+00  3.000000e+00
     vertex  1.033685e+01  4.774183e+00  3.000000e+00
   endloop
 endfacet
 facet normal  0.000000e+00 -0.000000e+00  1.000000e+00
   outer loop
     vertex  6.150000e+00 -6.350000e+00  3.000000e+00
     vertex  6.150000e+00  6.350000e+00  3.000000e+00
     vertex -6.150000e+00  6.350000e+00  3.000000e+00
   endloop
 endfacet
 facet normal  0.000000e+00  0.000000e+00  1.000000e+00
   outer loop
     vertex  1.033685e+01  4.774183e+00  3.000000e+00
     vertex  1.001564e+01  5.037794e+00  3.000000e+00
     vertex  9.677871e+00  5.279832e+00  3.000000e+00
   endloop
 endfacet
 facet normal  0.000000e+00 -0.000000e+00  1.000000e+00
   outer loop
     vertex  1.033685e+01 -4.774183e+00  3.000000e+00
     vertex  1.092418e+01 -4.186846e+00  3.000000e+00
     vertex  9.677871e+00 -5.279832e+00  3.000000e+00
   endloop
 endfacet
 facet normal -0.000000e+00 -0.000000e+00  1.000000e+00
   outer loop
     vertex -1.033685e+01 -4.774183e+00  3.000000e+00
     vertex -6.150000e+00 -6.350000e+00  3.000000e+00
     vertex -6.565310e+00  6.336404e+00  3.000000e+00
   endloop
 endfacet
 facet normal  0.000000e+00 -0.000000e+00  1.000000e+00
   outer loop
     vertex  1.001564e+01 -5.037794e+00  3.000000e+00
     vertex  1.033685e+01 -4.774183e+00  3.000000e+00
     vertex  9.677871e+00 -5.279832e+00  3.000000e+00
   endloop
 endfacet
 facet normal -0.000000e+00  0.000000e+00  1.000000e+00
   outer loop
     vertex -1.228363e+01 -1.643501e+00  3.000000e+00
     vertex -1.033685e+01 -4.774183e+00  3.000000e+00
     vertex -6.565310e+00  6.336404e+00  3.000000e+00
   endloop
 endfacet
 facet normal -0.000000e+00  0.000000e+00  1.000000e+00
   outer loop
     vertex -1.250000e+01 -2.797515e-15  3.000000e+00
     vertex -1.244567e+01 -8.288413e-01  3.000000e+00
     vertex -6.565310e+00  6.336404e+00  3.000000e+00
   endloop
 endfacet
 facet normal  0.000000e+00 -0.000000e+00  1.000000e+00
   outer loop
     vertex -6.150000e+00 -6.350000e+00  3.000000e+00
     vertex -6.150000e+00  6.350000e+00  3.000000e+00
     vertex -6.565310e+00  6.336404e+00  3.000000e+00
   endloop
 endfacet
 facet normal -0.000000e+00  0.000000e+00  1.000000e+00
   outer loop
     vertex -1.248640e+01  4.153099e-01  3.000000e+00
     vertex -1.250000e+01 -2.797515e-15  3.000000e+00
     vertex -6.565310e+00  6.336404e+00  3.000000e+00
   endloop
 endfacet
 facet normal -0.000000e+00  0.000000e+00  1.000000e+00
   outer loop
     vertex -1.244567e+01 -8.288413e-01  3.000000e+00
     vertex -1.237799e+01 -1.238824e+00  3.000000e+00
     vertex -6.565310e+00  6.336404e+00  3.000000e+00
   endloop
 endfacet
 facet normal -0.000000e+00  0.000000e+00  1.000000e+00
   outer loop
     vertex -1.237799e+01 -1.238824e+00  3.000000e+00
     vertex -1.228363e+01 -1.643501e+00  3.000000e+00
     vertex -6.565310e+00  6.336404e+00  3.000000e+00
   endloop
 endfacet
 facet normal  0.000000e+00  0.000000e+00  1.000000e+00
   outer loop
     vertex  1.118779e+01 -3.865635e+00  3.000000e+00
     vertex  1.142983e+01 -3.527871e+00  3.000000e+00
     vertex  1.164926e+01 -3.175000e+00  3.000000e+00
   endloop
 endfacet
 facet normal  0.000000e+00 -0.000000e+00  1.000000e+00
   outer loop
     vertex -1.248640e+01  4.153099e-01  3.000000e+00
     vertex -6.565310e+00  6.336404e+00  3.000000e+00
     vertex -1.244567e+01  8.288413e-01  3.000000e+00
   endloop
 endfacet
 facet normal  0.000000e+00  0.000000e+00  1.000000e+00
   outer loop
     vertex  9.677871e+00  5.279832e+00  3.000000e+00
     vertex  9.325000e+00  5.499261e+00  3.000000e+00
     vertex  8.580040e+00  5.866635e+00  3.000000e+00
   endloop
 endfacet
 facet normal  0.000000e+00  0.000000e+00  1.000000e+00
   outer loop
     vertex  9.325000e+00  5.499261e+00  3.000000e+00
     vertex  8.958533e+00  5.695142e+00  3.000000e+00
     vertex  8.580040e+00  5.866635e+00  3.000000e+00
   endloop
 endfacet
 facet normal  0.000000e+00  0.000000e+00  1.000000e+00
   outer loop
     vertex  1.248640e+01 -4.153099e-01  3.000000e+00
     vertex  1.033685e+01  4.774183e+00  3.000000e+00
     vertex  8.580040e+00  5.866635e+00  3.000000e+00
   endloop
 endfacet
 facet normal  0.000000e+00  0.000000e+00  1.000000e+00
   outer loop
     vertex  1.033685e+01  4.774183e+00  3.000000e+00
     vertex  9.677871e+00  5.279832e+00  3.000000e+00
     vertex  8.580040e+00  5.866635e+00  3.000000e+00
   endloop
 endfacet
 facet normal  0.000000e+00  0.000000e+00  1.000000e+00
   outer loop
     vertex -6.565310e+00  6.336404e+00  3.000000e+00
     vertex -6.978841e+00  6.295675e+00  3.000000e+00
     vertex -1.237799e+01  1.238824e+00  3.000000e+00
   endloop
 endfacet
 facet normal  0.000000e+00 -0.000000e+00  1.000000e+00
   outer loop
     vertex -1.244567e+01  8.288413e-01  3.000000e+00
     vertex -6.565310e+00  6.336404e+00  3.000000e+00
     vertex -1.237799e+01  1.238824e+00  3.000000e+00
   endloop
 endfacet
 facet normal  0.000000e+00  0.000000e+00  1.000000e+00
   outer loop
     vertex  8.580040e+00  5.866635e+00  3.000000e+00
     vertex  8.191141e+00  6.013006e+00  3.000000e+00
     vertex  7.793501e+00  6.133629e+00  3.000000e+00
   endloop
 endfacet
 facet normal  0.000000e+00  0.000000e+00  1.000000e+00
   outer loop
     vertex  1.118779e+01 -3.865635e+00  3.000000e+00
     vertex  1.164926e+01 -3.175000e+00  3.000000e+00
     vertex  1.184514e+01 -2.808533e+00  3.000000e+00
   endloop
 endfacet
 facet normal  0.000000e+00  0.000000e+00  1.000000e+00
   outer loop
     vertex  8.580040e+00  5.866635e+00  3.000000e+00
     vertex  7.793501e+00  6.133629e+00  3.000000e+00
     vertex  7.388824e+00  6.227987e+00  3.000000e+00
   endloop
 endfacet
 facet normal  0.000000e+00 -0.000000e+00  1.000000e+00
   outer loop
     vertex  8.958533e+00 -5.695142e+00  3.000000e+00
     vertex  9.325000e+00 -5.499261e+00  3.000000e+00
     vertex  8.580040e+00 -5.866635e+00  3.000000e+00
   endloop
 endfacet
 facet normal  0.000000e+00 -0.000000e+00  1.000000e+00
   outer loop
     vertex  1.118779e+01 -3.865635e+00  3.000000e+00
     vertex  1.248640e+01 -4.153099e-01  3.000000e+00
     vertex  6.978841e+00  6.295675e+00  3.000000e+00
   endloop
 endfacet
 facet normal  0.000000e+00  0.000000e+00  1.000000e+00
   outer loop
     vertex -6.978841e+00  6.295675e+00  3.000000e+00
     vertex -7.388824e+00  6.227987e+00  3.000000e+00
     vertex -8.580040e+00  5.866635e+00  3.000000e+00
   endloop
 endfacet
 facet normal  0.000000e+00  0.000000e+00  1.000000e+00
   outer loop
     vertex  1.248640e+01 -4.153099e-01  3.000000e+00
     vertex  8.580040e+00  5.866635e+00  3.000000e+00
     vertex  6.978841e+00  6.295675e+00  3.000000e+00
   endloop
 endfacet
 facet normal  0.000000e+00  0.000000e+00  1.000000e+00
   outer loop
     vertex -7.388824e+00  6.227987e+00  3.000000e+00
     vertex -7.793501e+00  6.133629e+00  3.000000e+00
     vertex -8.580040e+00  5.866635e+00  3.000000e+00
   endloop
 endfacet
 facet normal  0.000000e+00  0.000000e+00  1.000000e+00
   outer loop
     vertex -7.793501e+00  6.133629e+00  3.000000e+00
     vertex -8.191141e+00  6.013006e+00  3.000000e+00
     vertex -8.580040e+00  5.866635e+00  3.000000e+00
   endloop
 endfacet
 facet normal  0.000000e+00  0.000000e+00  1.000000e+00
   outer loop
     vertex  8.580040e+00  5.866635e+00  3.000000e+00
     vertex  7.388824e+00  6.227987e+00  3.000000e+00
     vertex  6.978841e+00  6.295675e+00  3.000000e+00
   endloop
 endfacet
 facet normal  0.000000e+00 -0.000000e+00  1.000000e+00
   outer loop
     vertex  6.565310e+00 -6.336404e+00  3.000000e+00
     vertex  1.118779e+01 -3.865635e+00  3.000000e+00
     vertex  6.565310e+00  6.336404e+00  3.000000e+00
   endloop
 endfacet
 facet normal  0.000000e+00  0.000000e+00  1.000000e+00
   outer loop
     vertex  1.118779e+01 -3.865635e+00  3.000000e+00
     vertex  6.978841e+00  6.295675e+00  3.000000e+00
     vertex  6.565310e+00  6.336404e+00  3.000000e+00
   endloop
 endfacet
 facet normal  0.000000e+00 -0.000000e+00  1.000000e+00
   outer loop
     vertex  9.325000e+00 -5.499261e+00  3.000000e+00
     vertex  9.677871e+00 -5.279832e+00  3.000000e+00
     vertex  8.191141e+00 -6.013006e+00  3.000000e+00
   endloop
 endfacet
 facet normal  0.000000e+00 -0.000000e+00  1.000000e+00
   outer loop
     vertex  9.677871e+00 -5.279832e+00  3.000000e+00
     vertex  1.092418e+01 -4.186846e+00  3.000000e+00
     vertex  8.191141e+00 -6.013006e+00  3.000000e+00
   endloop
 endfacet
 facet normal  0.000000e+00 -0.000000e+00  1.000000e+00
   outer loop
     vertex  8.580040e+00 -5.866635e+00  3.000000e+00
     vertex  9.325000e+00 -5.499261e+00  3.000000e+00
     vertex  8.191141e+00 -6.013006e+00  3.000000e+00
   endloop
 endfacet
 facet normal -0.000000e+00  0.000000e+00  1.000000e+00
   outer loop
     vertex -1.201664e+01  2.430040e+00  3.000000e+00
     vertex -1.216301e+01  2.041141e+00  3.000000e+00
     vertex -1.184514e+01  2.808533e+00  3.000000e+00
   endloop
 endfacet
 facet normal  0.000000e+00 -0.000000e+00  1.000000e+00
   outer loop
     vertex  6.150000e+00 -6.350000e+00  3.000000e+00
     vertex  6.565310e+00 -6.336404e+00  3.000000e+00
     vertex  6.150000e+00  6.350000e+00  3.000000e+00
   endloop
 endfacet
 facet normal  0.000000e+00  0.000000e+00  1.000000e+00
   outer loop
     vertex  6.565310e+00 -6.336404e+00  3.000000e+00
     vertex  6.565310e+00  6.336404e+00  3.000000e+00
     vertex  6.150000e+00  6.350000e+00  3.000000e+00
   endloop
 endfacet
 facet normal  0.000000e+00  0.000000e+00  1.000000e+00
   outer loop
     vertex -6.978841e+00  6.295675e+00  3.000000e+00
     vertex -8.580040e+00  5.866635e+00  3.000000e+00
     vertex -8.958533e+00  5.695142e+00  3.000000e+00
   endloop
 endfacet
 facet normal  0.000000e+00  0.000000e+00  1.000000e+00
   outer loop
     vertex  1.184514e+01 -2.808533e+00  3.000000e+00
     vertex  1.201664e+01 -2.430040e+00  3.000000e+00
     vertex  1.216301e+01 -2.041141e+00  3.000000e+00
   endloop
 endfacet
 facet normal  0.000000e+00 -0.000000e+00  1.000000e+00
   outer loop
     vertex  1.092418e+01 -4.186846e+00  3.000000e+00
     vertex  1.118779e+01 -3.865635e+00  3.000000e+00
     vertex  7.793501e+00 -6.133629e+00  3.000000e+00
   endloop
 endfacet
 facet normal  0.000000e+00 -0.000000e+00  1.000000e+00
   outer loop
     vertex  8.191141e+00 -6.013006e+00  3.000000e+00
     vertex  1.092418e+01 -4.186846e+00  3.000000e+00
     vertex  7.793501e+00 -6.133629e+00  3.000000e+00
   endloop
 endfacet
 facet normal -0.000000e+00 -0.000000e+00  1.000000e+00
   outer loop
     vertex -6.565310e+00 -6.336404e+00  3.000000e+00
     vertex -6.150000e+00 -6.350000e+00  3.000000e+00
     vertex -6.978841e+00 -6.295675e+00  3.000000e+00
   endloop
 endfacet
 facet normal -0.000000e+00 -0.000000e+00  1.000000e+00
   outer loop
     vertex -6.978841e+00 -6.295675e+00  3.000000e+00
     vertex -6.150000e+00 -6.350000e+00  3.000000e+00
     vertex -7.388824e+00 -6.227987e+00  3.000000e+00
   endloop
 endfacet
 facet normal  0.000000e+00  0.000000e+00  1.000000e+00
   outer loop
     vertex  1.118779e+01 -3.865635e+00  3.000000e+00
     vertex  1.184514e+01 -2.808533e+00  3.000000e+00
     vertex  1.228363e+01 -1.643501e+00  3.000000e+00
   endloop
 endfacet
 facet normal  0.000000e+00  0.000000e+00  1.000000e+00
   outer loop
     vertex  1.184514e+01 -2.808533e+00  3.000000e+00
     vertex  1.216301e+01 -2.041141e+00  3.000000e+00
     vertex  1.228363e+01 -1.643501e+00  3.000000e+00
   endloop
 endfacet
 facet normal -0.000000e+00  0.000000e+00  1.000000e+00
   outer loop
     vertex -1.184514e+01  2.808533e+00  3.000000e+00
     vertex -1.216301e+01  2.041141e+00  3.000000e+00
     vertex -1.142983e+01  3.527871e+00  3.000000e+00
   endloop
 endfacet
 facet normal -0.000000e+00  0.000000e+00  1.000000e+00
   outer loop
     vertex -1.164926e+01  3.175000e+00  3.000000e+00
     vertex -1.184514e+01  2.808533e+00  3.000000e+00
     vertex -1.142983e+01  3.527871e+00  3.000000e+00
   endloop
 endfacet
 facet normal -0.000000e+00  0.000000e+00  1.000000e+00
   outer loop
     vertex -1.216301e+01  2.041141e+00  3.000000e+00
     vertex -1.228363e+01  1.643501e+00  3.000000e+00
     vertex -1.142983e+01  3.527871e+00  3.000000e+00
   endloop
 endfacet
 facet normal -0.000000e+00 -0.000000e+00  1.000000e+00
   outer loop
     vertex -7.793501e+00 -6.133629e+00  3.000000e+00
     vertex -7.388824e+00 -6.227987e+00  3.000000e+00
     vertex -8.191141e+00 -6.013006e+00  3.000000e+00
   endloop
 endfacet
 facet normal  0.000000e+00  0.000000e+00  1.000000e+00
   outer loop
     vertex -8.958533e+00  5.695142e+00  3.000000e+00
     vertex -9.325000e+00  5.499261e+00  3.000000e+00
     vertex -9.677871e+00  5.279832e+00  3.000000e+00
   endloop
 endfacet
 facet normal -0.000000e+00 -0.000000e+00  1.000000e+00
   outer loop
     vertex -7.388824e+00 -6.227987e+00  3.000000e+00
     vertex -6.150000e+00 -6.350000e+00  3.000000e+00
     vertex -8.580040e+00 -5.866635e+00  3.000000e+00
   endloop
 endfacet
 facet normal -0.000000e+00 -0.000000e+00  1.000000e+00
   outer loop
     vertex -8.191141e+00 -6.013006e+00  3.000000e+00
     vertex -7.388824e+00 -6.227987e+00  3.000000e+00
     vertex -8.580040e+00 -5.866635e+00  3.000000e+00
   endloop
 endfacet
 facet normal  0.000000e+00  0.000000e+00  1.000000e+00
   outer loop
     vertex -6.978841e+00  6.295675e+00  3.000000e+00
     vertex -8.958533e+00  5.695142e+00  3.000000e+00
     vertex -9.677871e+00  5.279832e+00  3.000000e+00
   endloop
 endfacet
 facet normal  0.000000e+00 -0.000000e+00  1.000000e+00
   outer loop
     vertex  7.388824e+00 -6.227987e+00  3.000000e+00
     vertex  7.793501e+00 -6.133629e+00  3.000000e+00
     vertex  6.978841e+00 -6.295675e+00  3.000000e+00
   endloop
 endfacet
 facet normal -0.000000e+00 -0.000000e+00  1.000000e+00
   outer loop
     vertex -8.580040e+00 -5.866635e+00  3.000000e+00
     vertex -6.150000e+00 -6.350000e+00  3.000000e+00
     vertex -8.958533e+00 -5.695142e+00  3.000000e+00
   endloop
 endfacet
 facet normal -0.000000e+00 -0.000000e+00  1.000000e+00
   outer loop
     vertex -8.958533e+00 -5.695142e+00  3.000000e+00
     vertex -6.150000e+00 -6.350000e+00  3.000000e+00
     vertex -9.325000e+00 -5.499261e+00  3.000000e+00
   endloop
 endfacet
 facet normal  0.000000e+00 -0.000000e+00  1.000000e+00
   outer loop
     vertex -1.237799e+01  1.238824e+00  3.000000e+00
     vertex -6.978841e+00  6.295675e+00  3.000000e+00
     vertex -1.092418e+01  4.186846e+00  3.000000e+00
   endloop
 endfacet
 facet normal  0.000000e+00 -0.000000e+00  1.000000e+00
   outer loop
     vertex  7.793501e+00 -6.133629e+00  3.000000e+00
     vertex  1.118779e+01 -3.865635e+00  3.000000e+00
     vertex  6.565310e+00 -6.336404e+00  3.000000e+00
   endloop
 endfacet
 facet normal -0.000000e+00  0.000000e+00  1.000000e+00
   outer loop
     vertex -1.118779e+01  3.865635e+00  3.000000e+00
     vertex -1.142983e+01  3.527871e+00  3.000000e+00
     vertex -1.092418e+01  4.186846e+00  3.000000e+00
   endloop
 endfacet
 facet normal  0.000000e+00 -0.000000e+00  1.000000e+00
   outer loop
     vertex  6.978841e+00 -6.295675e+00  3.000000e+00
     vertex  7.793501e+00 -6.133629e+00  3.000000e+00
     vertex  6.565310e+00 -6.336404e+00  3.000000e+00
   endloop
 endfacet
 facet normal -0.000000e+00  0.000000e+00  1.000000e+00
   outer loop
     vertex -1.228363e+01  1.643501e+00  3.000000e+00
     vertex -1.237799e+01  1.238824e+00  3.000000e+00
     vertex -1.092418e+01  4.186846e+00  3.000000e+00
   endloop
 endfacet
 facet normal -0.000000e+00 -0.000000e+00  1.000000e+00
   outer loop
     vertex -9.325000e+00 -5.499261e+00  3.000000e+00
     vertex -6.150000e+00 -6.350000e+00  3.000000e+00
     vertex -9.677871e+00 -5.279832e+00  3.000000e+00
   endloop
 endfacet
 facet normal  0.000000e+00  0.000000e+00  1.000000e+00
   outer loop
     vertex -6.978841e+00  6.295675e+00  3.000000e+00
     vertex -9.677871e+00  5.279832e+00  3.000000e+00
     vertex -1.092418e+01  4.186846e+00  3.000000e+00
   endloop
 endfacet
 facet normal -0.000000e+00  0.000000e+00  1.000000e+00
   outer loop
     vertex -1.142983e+01  3.527871e+00  3.000000e+00
     vertex -1.228363e+01  1.643501e+00  3.000000e+00
     vertex -1.092418e+01  4.186846e+00  3.000000e+00
   endloop
 endfacet
 facet normal -0.000000e+00 -0.000000e+00  1.000000e+00
   outer loop
     vertex -9.677871e+00 -5.279832e+00  3.000000e+00
     vertex -6.150000e+00 -6.350000e+00  3.000000e+00
     vertex -1.001564e+01 -5.037794e+00  3.000000e+00
   endloop
 endfacet
 facet normal  0.000000e+00  0.000000e+00  1.000000e+00
   outer loop
     vertex  1.228363e+01 -1.643501e+00  3.000000e+00
     vertex  1.237799e+01 -1.238824e+00  3.000000e+00
     vertex  1.248640e+01 -4.153099e-01  3.000000e+00
   endloop
 endfacet
 facet normal  0.000000e+00  0.000000e+00  1.000000e+00
   outer loop
     vertex  1.237799e+01 -1.238824e+00  3.000000e+00
     vertex  1.244567e+01 -8.288413e-01  3.000000e+00
     vertex  1.248640e+01 -4.153099e-01  3.000000e+00
   endloop
 endfacet
 facet normal  0.000000e+00  0.000000e+00  1.000000e+00
   outer loop
     vertex  1.118779e+01 -3.865635e+00  3.000000e+00
     vertex  1.228363e+01 -1.643501e+00  3.000000e+00
     vertex  1.248640e+01 -4.153099e-01  3.000000e+00
   endloop
 endfacet
 facet normal  0.000000e+00  0.000000e+00  1.000000e+00
   outer loop
     vertex -9.677871e+00  5.279832e+00  3.000000e+00
     vertex -1.001564e+01  5.037794e+00  3.000000e+00
     vertex -1.064013e+01  4.490128e+00  3.000000e+00
   endloop
 endfacet
 facet normal  0.000000e+00  0.000000e+00  1.000000e+00
   outer loop
     vertex -1.001564e+01  5.037794e+00  3.000000e+00
     vertex -1.033685e+01  4.774183e+00  3.000000e+00
     vertex -1.064013e+01  4.490128e+00  3.000000e+00
   endloop
 endfacet
 facet normal  0.000000e+00 -0.000000e+00  1.000000e+00
   outer loop
     vertex -1.092418e+01  4.186846e+00  3.000000e+00
     vertex -9.677871e+00  5.279832e+00  3.000000e+00
     vertex -1.064013e+01  4.490128e+00  3.000000e+00
   endloop
 endfacet
 facet normal -0.000000e+00 -0.000000e+00  1.000000e+00
   outer loop
     vertex -1.001564e+01 -5.037794e+00  3.000000e+00
     vertex -6.150000e+00 -6.350000e+00  3.000000e+00
     vertex -1.033685e+01 -4.774183e+00  3.000000e+00
   endloop
 endfacet
 facet normal  0.000000e+00 -0.000000e+00  1.000000e+00
   outer loop
     vertex  1.248640e+01 -4.153099e-01  3.000000e+00
     vertex  1.250000e+01  2.797515e-15  3.000000e+00
     vertex  1.248640e+01  4.153099e-01  3.000000e+00
   endloop
 endfacet
 facet normal -0.000000e+00 -0.000000e+00  1.000000e+00
   outer loop
     vertex -1.092418e+01 -4.186846e+00  3.000000e+00
     vertex -1.064013e+01 -4.490128e+00  3.000000e+00
     vertex -1.118779e+01 -3.865635e+00  3.000000e+00
   endloop
 endfacet
 facet normal -0.000000e+00 -0.000000e+00  1.000000e+00
   outer loop
     vertex -1.064013e+01 -4.490128e+00  3.000000e+00
     vertex -1.033685e+01 -4.774183e+00  3.000000e+00
     vertex -1.118779e+01 -3.865635e+00  3.000000e+00
   endloop
 endfacet
 facet normal  0.000000e+00  0.000000e+00  1.000000e+00
   outer loop
     vertex  1.248640e+01  4.153099e-01  3.000000e+00
     vertex  1.244567e+01  8.288413e-01  3.000000e+00
     vertex  1.237799e+01  1.238824e+00  3.000000e+00
   endloop
 endfacet
 facet normal -0.000000e+00 -0.000000e+00  1.000000e+00
   outer loop
     vertex -1.118779e+01 -3.865635e+00  3.000000e+00
     vertex -1.033685e+01 -4.774183e+00  3.000000e+00
     vertex -1.142983e+01 -3.527871e+00  3.000000e+00
   endloop
 endfacet
 facet normal  0.000000e+00  0.000000e+00  1.000000e+00
   outer loop
     vertex  1.237799e+01  1.238824e+00  3.000000e+00
     vertex  1.228363e+01  1.643501e+00  3.000000e+00
     vertex  1.216301e+01  2.041141e+00  3.000000e+00
   endloop
 endfacet
 facet normal  0.000000e+00 -0.000000e+00  1.000000e+00
   outer loop
     vertex  1.248640e+01 -4.153099e-01  3.000000e+00
     vertex  1.248640e+01  4.153099e-01  3.000000e+00
     vertex  1.216301e+01  2.041141e+00  3.000000e+00
   endloop
 endfacet
 facet normal  0.000000e+00  0.000000e+00  1.000000e+00
   outer loop
     vertex  1.248640e+01  4.153099e-01  3.000000e+00
     vertex  1.237799e+01  1.238824e+00  3.000000e+00
     vertex  1.216301e+01  2.041141e+00  3.000000e+00
   endloop
 endfacet
 facet normal  0.000000e+00  0.000000e+00  1.000000e+00
   outer loop
     vertex  1.216301e+01  2.041141e+00  3.000000e+00
     vertex  1.201664e+01  2.430040e+00  3.000000e+00
     vertex  1.184514e+01  2.808533e+00  3.000000e+00
   endloop
 endfacet
 facet normal -0.000000e+00 -0.000000e+00  1.000000e+00
   outer loop
     vertex -1.142983e+01 -3.527871e+00  3.000000e+00
     vertex -1.033685e+01 -4.774183e+00  3.000000e+00
     vertex -1.228363e+01 -1.643501e+00  3.000000e+00
   endloop
 endfacet
 facet normal  0.000000e+00  0.000000e+00  1.000000e+00
   outer loop
     vertex  1.216301e+01  2.041141e+00  3.000000e+00
     vertex  1.184514e+01  2.808533e+00  3.000000e+00
     vertex  1.164926e+01  3.175000e+00  3.000000e+00
   endloop
 endfacet
 facet normal -0.000000e+00 -0.000000e+00  1.000000e+00
   outer loop
     vertex -1.216301e+01 -2.041141e+00  3.000000e+00
     vertex -1.201664e+01 -2.430040e+00  3.000000e+00
     vertex -1.228363e+01 -1.643501e+00  3.000000e+00
   endloop
 endfacet
 facet normal -0.000000e+00 -0.000000e+00  1.000000e+00
   outer loop
     vertex -1.201664e+01 -2.430040e+00  3.000000e+00
     vertex -1.184514e+01 -2.808533e+00  3.000000e+00
     vertex -1.228363e+01 -1.643501e+00  3.000000e+00
   endloop
 endfacet
 facet normal -0.000000e+00 -0.000000e+00  1.000000e+00
   outer loop
     vertex -1.184514e+01 -2.808533e+00  3.000000e+00
     vertex -1.164926e+01 -3.175000e+00  3.000000e+00
     vertex -1.228363e+01 -1.643501e+00  3.000000e+00
   endloop
 endfacet
 facet normal -0.000000e+00 -0.000000e+00  1.000000e+00
   outer loop
     vertex -1.164926e+01 -3.175000e+00  3.000000e+00
     vertex -1.142983e+01 -3.527871e+00  3.000000e+00
     vertex -1.228363e+01 -1.643501e+00  3.000000e+00
   endloop
 endfacet
 facet normal  0.000000e+00  0.000000e+00  1.000000e+00
   outer loop
     vertex  1.216301e+01  2.041141e+00  3.000000e+00
     vertex  1.164926e+01  3.175000e+00  3.000000e+00
     vertex  1.142983e+01  3.527871e+00  3.000000e+00
   endloop
 endfacet
endsolid
